<?xml version="1.0" encoding="utf-8"?>
<!-- Generator: Adobe Illustrator 21.1.0, SVG Export Plug-In . SVG Version: 6.00 Build 0)  -->
<svg version="1.1" id="Capa_1" xmlns="http://www.w3.org/2000/svg" xmlns:xlink="http://www.w3.org/1999/xlink" x="0px" y="0px"
	 viewBox="0 0 511 284.5" style="enable-background:new 0 0 511 284.5;" xml:space="preserve">
<style type="text/css">
	.st0{fill:#FFCE00;}
	.st1{fill:#FFFDFF;}
	.st2{fill:#FFBF00;}
	.st3{fill:#FFFDEF;}
	.st4{fill:#964000;}
	.st5{fill:#FFFCF8;}
	.st6{fill:#FF60A8;}
	.st7{fill:#FF2391;}
	.st8{fill:#FF4C97;}
	.st9{fill:#BA0445;}
	.st10{fill:#FF529E;}
	.st11{fill:#ED2B7D;}
	.st12{fill:#0058C0;}
	.st13{fill:#0043AB;}
	.st14{fill:#FFFFFF;}
	.st15{fill:#0042AF;}
	.st16{fill:#003565;}
	.st17{fill:#FF897B;}
	.st18{fill:#FF695A;}
	.st19{fill:#4F0000;}
	.st20{fill:#FF5A4E;}
	.st21{fill:#FF584D;}
	.st22{fill:#FF5349;}
	.st23{fill:#FFFEFF;}
	.st24{fill:#E6E6E6;}
	.st25{fill:#FF605C;}
	.st26{fill:#AF4945;}
	.st27{opacity:0.48;fill:#F2F2F2;}
	.st28{fill:#95C101;}
	.st29{fill:#59AC00;}
	.st30{fill:#70A400;}
	.st31{fill:#529D00;}
	.st32{fill:#E75EDE;}
	.st33{fill:none;}
	.st34{fill:#FFBCF4;}
	.st35{fill:#000007;}
	.st36{fill:#DB54C0;}
	.st37{fill:#BD40A9;}
	.st38{fill:#9C1426;}
	.st39{fill:#F77136;}
	.st40{fill:#E658D6;}
	.st41{fill:#E751D0;}
	.st42{fill:#FF475B;}
	.st43{fill:#CC163F;}
	.st44{fill:#FEC914;}
	.st45{fill:#9E5E0A;}
	.st46{fill:#040008;}
	.st47{fill:#DC1B43;}
	.st48{fill:#AB0328;}
	.st49{fill:#8E0E25;}
	.st50{fill:#FB2D42;}
	.st51{fill:#FFC000;}
	.st52{fill:#F40560;}
	.st53{fill:#FF719F;}
	.st54{fill:#F7E700;}
	.st55{fill:#F9539E;}
	.st56{fill:#FDE900;}
	.st57{fill:#00B681;}
	.st58{fill:#00EDC6;}
	.st59{fill:#710227;}
	.st60{fill:#C5075D;}
	.st61{fill:#FAC300;}
	.st62{fill:#00F5C7;}
	.st63{fill:#00725B;}
	.st64{fill:#8CFFF5;}
	.st65{fill:#A0FFF5;}
	.st66{fill:#73D29B;}
	.st67{fill:#7E4CD2;}
	.st68{fill:#4D299A;}
	.st69{fill:#562CA0;}
	.st70{fill:#41178A;}
	.st71{fill:#330C73;}
	.st72{fill:#B991FB;}
	.st73{fill:#3F0A58;}
	.st74{fill:#FBB03B;}
	.st75{fill:#E78300;}
	.st76{fill:#D66F00;}
	.st77{fill:#D66300;}
	.st78{fill:#F98F10;}
</style>
<path class="st32" d="M452,117.2c-41.3-8.9-82.7,21-92.6,66.8c-9.9,45.8,15.6,90.1,56.8,99c41.3,8.9,82.7-21,92.6-66.8
	C518.7,170.4,493.3,126.1,452,117.2z M485.8,206.9c-5.9,27.3-28.4,45.7-50.3,40.9c-21.8-4.7-34.7-30.7-28.8-58.1
	c5.9-27.3,28.4-45.7,50.3-40.9C478.8,153.5,491.7,179.5,485.8,206.9z"/>
<path class="st14" d="M447.5,33c-18.2,0-34.2,8.8-43.9,22.2C392.2,41,374.2,31.9,354,31.9c-34.6,0-62.7,26.8-62.7,59.8
	s28.1,59.8,62.7,59.8c23.6,0,44.1-12.5,54.8-30.8c9.8,9.9,23.4,16,38.7,16c29.6,0,53.6-23.2,53.6-51.9S477.1,33,447.5,33z"/>
<g>
	<path class="st33" d="M420.8,240.4c4.2,3.6,9.2,6.2,14.7,7.4c21.8,4.7,44.4-13.6,50.3-40.9c5.9-27.3-7-53.3-28.8-58.1
		c-9.9-2.1-19.9,0.5-28.5,6.5C434.8,186.6,434.2,218.3,420.8,240.4z"/>
	<path class="st34" d="M408.1,122c0.5-0.2,1-0.4,1.5-0.6c-0.2-0.2-0.5-0.4-0.7-0.6C408.6,121.2,408.3,121.6,408.1,122z"/>
	<path class="st34" d="M359.4,184c3-13.7,8.8-25.9,16.6-36.2c-6.8,2.4-14.2,3.8-21.9,3.8c-34.6,0-62.7-26.8-62.7-59.8
		c0-11,3.2-21.2,8.6-30.1c-52.5,10.4-123.8,28.9-170.8,58c-82.1,50.9-72.2,57.8-73,72.2c-0.8,14.4,16.7,32.7,47.1,44.1
		c29.2,10.9,197.6,58.9,281.7,31.2C363.3,248.3,352.4,216.5,359.4,184z"/>
</g>
<circle class="st35" cx="374" cy="87.2" r="22.8"/>
<circle class="st35" cx="461.8" cy="79.2" r="19.4"/>
<path class="st36" d="M252.3,156.7c0.9,9.1,4.8,18.2-15.7,31.3s-51.9,29.6-64.4,7.4s-18.6-65.9,0.9-67.8c23.2-2.3,53.8,4,64.9,8.5
	C242.9,138.2,250.6,140.2,252.3,156.7z"/>
<path class="st37" d="M230.5,146.3c0.4,1.5-50.9,4.9-50.9,4.9S226,129.2,230.5,146.3z"/>
<path class="st37" d="M189.1,186.5l46.7-16C235.9,170.6,253.7,182,189.1,186.5z"/>
<path class="st38" d="M457,148.8c-21.8-4.7-44.4,13.6-50.3,40.9c-0.3,1.2-0.5,2.5-0.6,3.7c16.9,2.6,41.6,12.9,57.4,48.3
	c10.6-7.2,19.1-19.6,22.4-34.8C491.7,179.5,478.8,153.5,457,148.8z"/>
<path class="st39" d="M406,193.4c-4.1,25.9,8.6,49.9,29.5,54.4c9.7,2.1,19.5-0.3,27.9-6.1C447.6,206.3,422.9,196,406,193.4z"/>
<g>
	<g>
		<path class="st40" d="M319.8,41.7c4.4-13.2,5.5-24.3,0.8-32.2C311.5-5.7,267,0,223.7,8.3c-50.3,9.7-61.9,20.5-66.5,35.3
			c-5.9,19,15.1,39.5,27.4,49.6c38.4-14.5,80.9-24.8,115.3-31.6C304.8,53.6,311.6,46.7,319.8,41.7z"/>
	</g>
</g>
<g>
	<path class="st33" d="M457,148.8c-9.9-2.1-19.9,0.5-28.5,6.5c6.3,31.3,5.7,63-7.7,85.1c4.2,3.6,9.2,6.2,14.7,7.4
		c21.8,4.7,44.4-13.6,50.3-40.9C491.7,179.5,478.8,153.5,457,148.8z"/>
	<path class="st34" d="M408.1,122c0.5-0.2,1-0.4,1.5-0.6c-0.2-0.2-0.5-0.4-0.7-0.6C408.6,121.2,408.3,121.6,408.1,122z"/>
	<path class="st37" d="M187.9,37.5c-0.5-1.3-2.3-1-2.5,0.3c-3.2,23.8,9,43.9,13.5,50.3c4.5-1.5,9-3,13.5-4.5
		C203.7,77.2,192.1,48.6,187.9,37.5z"/>
	<path class="st37" d="M240,21.8c-0.2-1.3-2.1-1.4-2.5-0.2c-8.3,24.7,2,48.6,4.4,53.4c4.4-1.2,8.9-2.3,13.2-3.4
		C247.9,63.4,242.1,33.5,240,21.8z"/>
	<path class="st37" d="M293.4,24.4c0.1-1.2-1.4-1.7-2.1-0.8c-10.9,15.4-10.9,33.6-10.2,42c3.7-0.8,7.3-1.6,10.8-2.3
		C290.5,51.8,292.4,32.7,293.4,24.4z"/>
</g>
<g>
	<path class="st41" d="M27.6,215.4c11.6-4.7,23.3-14.1,28.9-19c-0.3-1.6-0.5-3.1-0.4-4.6c0-0.7,0-1.3,0-2
		c-17.3-2.9-33.5-17.4-33.5-17.4c8.6,3.7,26.7,9.1,33.5,11c0.2-3.7,1.2-7.6,5-12.8c-11-12.1-36-38.1-54.4-47.3
		c0,0-19.8,76.4,8.4,130.7c2.7,5.2,6.4,15.7,22.8-6.1c11.2-14.9,20.1-29.2,25.4-38.3c-1.8-2.3-3.4-4.6-4.5-6.9
		C44.8,217,27.6,215.4,27.6,215.4z"/>
	<path class="st37" d="M56.2,189.9c0-2.2-0.1-4.3,0-6.4c-6.8-2-24.9-7.4-33.5-11C22.7,172.5,38.9,187,56.2,189.9z"/>
	<path class="st37" d="M58.8,202.9c-1.1-2.2-1.8-4.4-2.2-6.5c-5.6,4.9-17.3,14.3-28.9,19C27.6,215.4,44.8,217,58.8,202.9z"/>
</g>
<ellipse class="st41" cx="313.8" cy="240.9" rx="15.6" ry="3.8"/>
<ellipse class="st41" cx="260.2" cy="239.7" rx="15.6" ry="3.8"/>
</svg>
