<?xml version="1.0" encoding="utf-8"?>
<!-- Generator: Adobe Illustrator 21.1.0, SVG Export Plug-In . SVG Version: 6.00 Build 0)  -->
<svg version="1.1" id="Capa_1" xmlns="http://www.w3.org/2000/svg" xmlns:xlink="http://www.w3.org/1999/xlink" x="0px" y="0px"
	 viewBox="0 0 585.8 566.5" style="enable-background:new 0 0 585.8 566.5;" xml:space="preserve">
<style type="text/css">
	.st0{fill:#FFCE00;}
	.st1{fill:#FFFDFF;}
	.st2{fill:#FFBF00;}
	.st3{fill:#FFFDEF;}
	.st4{fill:#964000;}
	.st5{fill:#FFFCF8;}
	.st6{fill:#FF60A8;}
	.st7{fill:#FF2391;}
	.st8{fill:#FF4C97;}
	.st9{fill:#BA0445;}
	.st10{fill:#FF529E;}
	.st11{fill:#ED2B7D;}
	.st12{fill:#0058C0;}
	.st13{fill:#0043AB;}
	.st14{fill:#FFFFFF;}
	.st15{fill:#0042AF;}
	.st16{fill:#003565;}
	.st17{fill:#FF897B;}
	.st18{fill:#FF695A;}
	.st19{fill:#4F0000;}
	.st20{fill:#FF5A4E;}
	.st21{fill:#FF584D;}
	.st22{fill:#FF5349;}
	.st23{fill:#FFFEFF;}
	.st24{fill:#E6E6E6;}
	.st25{fill:#FF605C;}
	.st26{fill:#AF4945;}
	.st27{opacity:0.48;fill:#F2F2F2;}
	.st28{fill:#95C101;}
	.st29{fill:#59AC00;}
	.st30{fill:#70A400;}
	.st31{fill:#529D00;}
	.st32{fill:#E75EDE;}
	.st33{fill:none;}
	.st34{fill:#FFBCF4;}
	.st35{fill:#000007;}
	.st36{fill:#DB54C0;}
	.st37{fill:#BD40A9;}
	.st38{fill:#9C1426;}
	.st39{fill:#F77136;}
	.st40{fill:#E658D6;}
	.st41{fill:#E751D0;}
	.st42{fill:#FF475B;}
	.st43{fill:#CC163F;}
	.st44{fill:#FEC914;}
	.st45{fill:#9E5E0A;}
	.st46{fill:#040008;}
	.st47{fill:#DC1B43;}
	.st48{fill:#AB0328;}
	.st49{fill:#8E0E25;}
	.st50{fill:#FB2D42;}
	.st51{fill:#FFC000;}
	.st52{fill:#F40560;}
	.st53{fill:#FF719F;}
	.st54{fill:#F7E700;}
	.st55{fill:#F9539E;}
	.st56{fill:#FDE900;}
	.st57{fill:#00B681;}
	.st58{fill:#00EDC6;}
	.st59{fill:#710227;}
	.st60{fill:#C5075D;}
	.st61{fill:#FAC300;}
	.st62{fill:#00F5C7;}
	.st63{fill:#00725B;}
	.st64{fill:#8CFFF5;}
	.st65{fill:#A0FFF5;}
	.st66{fill:#73D29B;}
	.st67{fill:#7E4CD2;}
	.st68{fill:#4D299A;}
	.st69{fill:#562CA0;}
	.st70{fill:#41178A;}
	.st71{fill:#330C73;}
	.st72{fill:#B991FB;}
	.st73{fill:#3F0A58;}
	.st74{fill:#FBB03B;}
	.st75{fill:#E78300;}
	.st76{fill:#D66F00;}
	.st77{fill:#D66300;}
	.st78{fill:#F98F10;}
</style>
<path class="st67" d="M157.5,278.4c2,48.9-7.8,78.4-27.3,136.7c-24,71.5-80.6,115.4-73.3,129.2c11.9,22.5,68.2,25.4,112.2,19.6
	c44.1-5.8,154.4-8.6,256.6-96.3c83-71.3,80.5-134.9,72.3-202.3c-8.5-70.6-74.6-147.8-132.4-186C304.2,38.8,239,5.9,123.4,1.2
	s-51.6,1.2-9.5,84.7C134.7,127.1,154.8,213.9,157.5,278.4z"/>
<g>
	<path class="st68" d="M157.5,278.4c-0.9-22.6-4-47.9-8.5-73.1C124.7,188.7,72.7,156.5,52,149c-28.5-10.4-44.8-6-37.6,21.4
		c7.1,27.3,24.7,62.9,6.8,124.3C3.3,356-5.1,369.1,3.3,381.2c7.8,11.2,82.1-5.3,150.9-49.7C157.1,314.9,158.3,298.2,157.5,278.4z"/>
</g>
<g>
	<path class="st14" d="M415.4,256.1c22.9-24.9,56.8-35.7,79-12.5c0,0,18.6-21.4,37.2-16.2c2.9,0.8,5.5,2,7.9,3.4
		c9.9-11,15.8-25.7,15.1-41.7c-1.3-32.4-28.7-57.7-61.1-56.4c-13.2,0.5-25.1,5.4-34.6,13.1c-12.7-10.8-29.2-17.2-47.2-16.4
		c-37.7,1.5-67.1,33.3-65.5,71.1c1.4,33.8,27.1,60.9,59.6,65C408.9,262.7,412.1,259.6,415.4,256.1z"/>
</g>
<ellipse transform="matrix(0.9992 -4.057115e-02 4.057115e-02 0.9992 -7.4415 20.4188)" class="st46" cx="499.4" cy="193.6" rx="27.1" ry="27.1"/>
<ellipse transform="matrix(0.9992 -4.057115e-02 4.057115e-02 0.9992 -7.728 17.0633)" class="st46" cx="416.5" cy="198.9" rx="31.6" ry="31.6"/>
<path class="st69" d="M337.9,340.2c7.5,13.3,9.3,30.3-18.8,58.2c-35.4,35.1-83.3,57.8-106.2,12.4s-12.7-64.9,25.1-76.5
	S324.9,317.1,337.9,340.2z"/>
<path class="st70" d="M323.3,341.3c0,0-60.4,25.1-69.4,28c-8.9,2.9-12.8-5.5-3.4-10.4C259.9,354,299.7,341.3,323.3,341.3z"/>
<path class="st70" d="M329.3,356.3c0,0-58,30.2-66,35.2c-8,5-4,13.4,5.8,9.3C278.9,396.8,314.1,374.5,329.3,356.3z"/>
<g>
	<path class="st71" d="M84,214c-23.5,9.2-14.8,23.2-14.8,23.2c31.3-2.8,68.9,8.2,86.3,14c-0.5-4.8-1-9.7-1.7-14.6
		C120.6,219.5,84,214,84,214z"/>
	<path class="st71" d="M53.1,257.3c0,0-3.1,19.7,29.1,28c0,0,36.3-11.4,75.1-9c-0.1-3.2-0.3-6.4-0.6-9.6
		C128.6,259.6,81.4,250.2,53.1,257.3z"/>
	<path class="st71" d="M49.8,315.9c5.4,18.1,31.8,13.2,31.8,13.2c23-12.7,56.7-18.1,75.5-20.2c0.3-3.8,0.5-7.7,0.6-11.7
		C109.8,293.5,49.8,315.9,49.8,315.9z"/>
</g>
<ellipse transform="matrix(0.9992 -4.057115e-02 4.057115e-02 0.9992 -10.2444 11.7165)" class="st72" cx="283.5" cy="258.3" rx="13.6" ry="15.3"/>
<ellipse transform="matrix(0.9296 -0.3685 0.3685 0.9296 -160.0069 131.1609)" class="st72" cx="263.4" cy="484.5" rx="18.8" ry="18.8"/>
<ellipse transform="matrix(0.742 -0.6704 0.6704 0.742 -192.486 354.6724)" class="st72" cx="364.6" cy="427.4" rx="26.8" ry="20.7"/>
<path class="st73" d="M585.8,270c0,0-12.9,25.2-48.5,22c-35.7-3.2-35.5-22.9-42-22.6c-4.2,0.2-7.8,12.3-20.5,22.1
	c-12.7,9.8-54.6,23.6-104.5-5c0,0,22.2-5.5,45.1-30.4c22.9-24.9,56.8-35.7,79-12.5c0,0,18.6-21.4,37.2-16.2
	C561.7,235.8,560,279.5,585.8,270z"/>
<g>
	<path class="st44" d="M537.3,292c-35.7-3.2-35.5-22.9-42-22.6c-4.2,0.2-7.8,12.3-20.5,22.1c-11.4,8.7-46,20.7-88.8,2.8
		c-1.8,2.9-3.3,6-4.2,9.5c-11.1,42.7,16.4,64.9,50.5,68.4c34.1,3.6,85,8.3,104.9-6.6c19.9-14.9,9.5-34.8-14.8-34.3
		c-30.7,0.6-53.4,1.5-78.4-0.2c-7.6-0.5-8.8-7.8-0.2-7.9c11.5-0.1,17.5-0.1,42.8,0.1c41.3,0.3,61.4-8.4,62.5-27.2
		c0.1-1.4,0-2.7-0.2-4C545.3,292.4,541.5,292.4,537.3,292z"/>
</g>
<g>
	<path class="st45" d="M505,324.7c-0.1-0.7-0.1-1.4-0.1-2.1c-5.6,0.4-11.6,0.6-18.3,0.6c-25.2-0.2-31.2-0.2-42.8-0.1
		c-8.6,0.1-7.4,7.4,0.2,7.9c20.3,1.4,39.1,1,61.8,0.5C505.4,329.3,505.1,327.1,505,324.7z"/>
</g>
</svg>
