<?xml version="1.0" encoding="utf-8"?>
<!-- Generator: Adobe Illustrator 21.1.0, SVG Export Plug-In . SVG Version: 6.00 Build 0)  -->
<svg version="1.1" id="Capa_1" xmlns="http://www.w3.org/2000/svg" xmlns:xlink="http://www.w3.org/1999/xlink" x="0px" y="0px"
	 viewBox="0 0 523.8 608.8" style="enable-background:new 0 0 523.8 608.8;" xml:space="preserve">
<style type="text/css">
	.st0{fill:#FFCE00;}
	.st1{fill:#FFFDFF;}
	.st2{fill:#FFBF00;}
	.st3{fill:#FFFDEF;}
	.st4{fill:#964000;}
	.st5{fill:#FFFCF8;}
	.st6{fill:#FF60A8;}
	.st7{fill:#FF2391;}
	.st8{fill:#FF4C97;}
	.st9{fill:#BA0445;}
	.st10{fill:#FF529E;}
	.st11{fill:#ED2B7D;}
	.st12{fill:#0058C0;}
	.st13{fill:#0043AB;}
	.st14{fill:#FFFFFF;}
	.st15{fill:#0042AF;}
	.st16{fill:#003565;}
	.st17{fill:#FF897B;}
	.st18{fill:#FF695A;}
	.st19{fill:#4F0000;}
	.st20{fill:#FF5A4E;}
	.st21{fill:#FF584D;}
	.st22{fill:#FF5349;}
	.st23{fill:#FFFEFF;}
	.st24{fill:#E6E6E6;}
	.st25{fill:#FF605C;}
	.st26{fill:#AF4945;}
	.st27{opacity:0.48;fill:#F2F2F2;}
	.st28{fill:#95C101;}
	.st29{fill:#59AC00;}
	.st30{fill:#70A400;}
	.st31{fill:#529D00;}
	.st32{fill:#E75EDE;}
	.st33{fill:none;}
	.st34{fill:#FFBCF4;}
	.st35{fill:#000007;}
	.st36{fill:#DB54C0;}
	.st37{fill:#BD40A9;}
	.st38{fill:#9C1426;}
	.st39{fill:#F77136;}
	.st40{fill:#E658D6;}
	.st41{fill:#E751D0;}
	.st42{fill:#FF475B;}
	.st43{fill:#CC163F;}
	.st44{fill:#FEC914;}
	.st45{fill:#9E5E0A;}
	.st46{fill:#040008;}
	.st47{fill:#DC1B43;}
	.st48{fill:#AB0328;}
	.st49{fill:#8E0E25;}
	.st50{fill:#FB2D42;}
	.st51{fill:#FFC000;}
	.st52{fill:#F40560;}
	.st53{fill:#FF719F;}
	.st54{fill:#F7E700;}
	.st55{fill:#F9539E;}
	.st56{fill:#FDE900;}
	.st57{fill:#00B681;}
	.st58{fill:#00EDC6;}
	.st59{fill:#710227;}
	.st60{fill:#C5075D;}
	.st61{fill:#FAC300;}
	.st62{fill:#00F5C7;}
	.st63{fill:#00725B;}
	.st64{fill:#8CFFF5;}
	.st65{fill:#A0FFF5;}
	.st66{fill:#73D29B;}
	.st67{fill:#7E4CD2;}
	.st68{fill:#4D299A;}
	.st69{fill:#562CA0;}
	.st70{fill:#41178A;}
	.st71{fill:#330C73;}
	.st72{fill:#B991FB;}
	.st73{fill:#3F0A58;}
	.st74{fill:#FBB03B;}
	.st75{fill:#E78300;}
	.st76{fill:#D66F00;}
	.st77{fill:#D66300;}
	.st78{fill:#F98F10;}
</style>
<path class="st74" d="M472.6,284.9c0,0,10.8,90.2-84.4,124.4S141,359.9,84.1,464.9c0,0-23.5,17.7-55.2-0.5
	c0,0-86.5-185.2,49.2-309.4S482.7,79.3,472.6,284.9z"/>
<g>
	<path class="st75" d="M28.9,464.4C23.4,499.7,12,525,3.7,544.1c-16.7,38.4,24.9,82.9,103,56.8c78.1-26.1,55.1-74.5,55.1-74.5
		c-64.3-0.6-77.6-61.6-77.6-61.6S60.6,482.6,28.9,464.4z"/>
</g>
<g>
	<path class="st75" d="M380.2,116.3C412,58,332.9-14.1,248.5,2.4c-76.6,14.9-90.8,88.2-93.1,104.8
		C229.5,77.8,316.2,81.3,380.2,116.3z"/>
	<path class="st75" d="M442.3,374.6c-12.4,13.6-29.8,26-54.1,34.8c-13,4.7-27,7.1-41.7,8.2c23.8,13.3,75.4,38.5,103.4,23
		C487.2,419.9,463.3,389.8,442.3,374.6z"/>
</g>
<path class="st14" d="M508.6,183c-18.7-20.4-48.6-24.3-71.6-10.9c-2.1-13.6-8.1-26.7-18-37.5c-26.8-29.3-72.3-31.3-101.6-4.5
	c-29.3,26.8-31.3,72.3-4.5,101.6c25.7,28.1,68.7,31.1,98,7.6c2.4,7.9,6.6,15.4,12.5,21.8c21.5,23.5,58.1,25.2,81.6,3.6
	C528.5,243.1,530.1,206.5,508.6,183z"/>
<ellipse transform="matrix(0.7377 -0.6752 0.6752 0.7377 -25.6807 381.7176)" cx="478.4" cy="223.9" rx="28.1" ry="28.1"/>
<ellipse transform="matrix(0.7377 -0.6752 0.6752 0.7377 -24.7066 303.8145)" cx="378.6" cy="183.7" rx="38.7" ry="38.7"/>
<path class="st75" d="M114.1,186.2c0,0-7.2,53.4,56.1,92.2c0,0,5.3,31.7-26.4,46.6c-35.3,16.6-94.1-15.8-105-62.3
	C28.2,217.6,70.2,175.4,114.1,186.2z"/>
<path class="st76" d="M85.5,226.7c0,0-14.7,47.3,42.5,57.2C128,284,92.9,265.8,85.5,226.7z"/>
<path class="st75" d="M457,310.5c-23.3,4-54,0.5-78.7-9.3c-59.9-23.9-77.1-54-100-37.2c-22.9,16.7,4.3,60.4,67,89.4
	c55.3,25.6,101.9,22.6,120.9,9.1c15.9-11.3,17.6-22.5,16.9-30.3C482.3,324.8,478.7,306.8,457,310.5z"/>
<path class="st76" d="M47.5,488.9c0,0-34.6,46.8,24.8,97.2C72.3,586.1,42.8,529.1,47.5,488.9z"/>
<path class="st76" d="M70.6,501.8c0,0,10.6,49.8,55.2,43.9C125.8,545.6,88.1,530.1,70.6,501.8z"/>
<path class="st77" d="M285,289.7c31.2,34.2,129.6,81.2,185.5,49c0.9-0.5,1.6-1.5,1.7-2.5v0c0.5-2.7-2.2-4.9-4.8-3.9
	c-19.1,7.6-83.7,23.9-178.1-47.6C280.9,278.3,279,283.1,285,289.7z"/>
<g>
	<path class="st76" d="M204.8,41.9c-12.9,20.4-17.1,45-18.4,55.1c4-1.1,8-2.1,12-2.9C198.4,77.2,204.8,41.9,204.8,41.9z"/>
	<path class="st76" d="M254.7,27.3c-13.1,26.9-12.3,56.5-12.1,60.6c4.9-0.3,9.7-0.5,14.5-0.5C252.5,68.7,254.7,27.3,254.7,27.3z"/>
	<path class="st76" d="M291.4,35.3c3.4,13-0.3,52.2-0.3,52.2l4.2,2c3.6,0.5,7.1,1,10.7,1.5C304.6,57.1,291.4,35.3,291.4,35.3z"/>
	<path class="st76" d="M343.3,52.9c2,15-4.7,40.1-6.2,45.5c5.9,1.8,11.8,3.8,17.5,6C358.7,76.7,343.3,52.9,343.3,52.9z"/>
</g>
<ellipse transform="matrix(0.7377 -0.6752 0.6752 0.7377 -196.1273 253.3685)" class="st78" cx="228" cy="379.1" rx="19" ry="12.9"/>
<ellipse transform="matrix(0.7377 -0.6752 0.6752 0.7377 -150.4166 251.3373)" class="st78" cx="248.2" cy="319.2" rx="9.7" ry="10.9"/>
</svg>
