<?xml version="1.0" encoding="utf-8"?>
<!-- Generator: Adobe Illustrator 21.1.0, SVG Export Plug-In . SVG Version: 6.00 Build 0)  -->
<svg version="1.1" id="Capa_1" xmlns="http://www.w3.org/2000/svg" xmlns:xlink="http://www.w3.org/1999/xlink" x="0px" y="0px"
	 viewBox="0 0 423 416.8" style="enable-background:new 0 0 423 416.8;" xml:space="preserve">
<style type="text/css">
	.st0{fill:#FFCE00;}
	.st1{fill:#FFFDFF;}
	.st2{fill:#FFBF00;}
	.st3{fill:#FFFDEF;}
	.st4{fill:#964000;}
	.st5{fill:#FFFCF8;}
	.st6{fill:#FF60A8;}
	.st7{fill:#FF2391;}
	.st8{fill:#FF4C97;}
	.st9{fill:#BA0445;}
	.st10{fill:#FF529E;}
	.st11{fill:#ED2B7D;}
	.st12{fill:#0058C0;}
	.st13{fill:#0043AB;}
	.st14{fill:#FFFFFF;}
	.st15{fill:#0042AF;}
	.st16{fill:#003565;}
	.st17{fill:#FF897B;}
	.st18{fill:#FF695A;}
	.st19{fill:#4F0000;}
	.st20{fill:#FF5A4E;}
	.st21{fill:#FF584D;}
	.st22{fill:#FF5349;}
	.st23{fill:#FFFEFF;}
	.st24{fill:#E6E6E6;}
	.st25{fill:#FF605C;}
	.st26{fill:#AF4945;}
	.st27{opacity:0.48;fill:#F2F2F2;}
	.st28{fill:#95C101;}
	.st29{fill:#59AC00;}
	.st30{fill:#70A400;}
	.st31{fill:#529D00;}
	.st32{fill:#E75EDE;}
	.st33{fill:none;}
	.st34{fill:#FFBCF4;}
	.st35{fill:#000007;}
	.st36{fill:#DB54C0;}
	.st37{fill:#BD40A9;}
	.st38{fill:#9C1426;}
	.st39{fill:#F77136;}
	.st40{fill:#E658D6;}
	.st41{fill:#E751D0;}
	.st42{fill:#FF475B;}
	.st43{fill:#CC163F;}
	.st44{fill:#FEC914;}
	.st45{fill:#9E5E0A;}
	.st46{fill:#040008;}
	.st47{fill:#DC1B43;}
	.st48{fill:#AB0328;}
	.st49{fill:#8E0E25;}
	.st50{fill:#FB2D42;}
	.st51{fill:#FFC000;}
	.st52{fill:#F40560;}
	.st53{fill:#FF719F;}
	.st54{fill:#F7E700;}
	.st55{fill:#F9539E;}
	.st56{fill:#FDE900;}
	.st57{fill:#00B681;}
	.st58{fill:#00EDC6;}
	.st59{fill:#710227;}
	.st60{fill:#C5075D;}
	.st61{fill:#FAC300;}
	.st62{fill:#00F5C7;}
	.st63{fill:#00725B;}
	.st64{fill:#8CFFF5;}
	.st65{fill:#A0FFF5;}
	.st66{fill:#73D29B;}
	.st67{fill:#7E4CD2;}
	.st68{fill:#4D299A;}
	.st69{fill:#562CA0;}
	.st70{fill:#41178A;}
	.st71{fill:#330C73;}
	.st72{fill:#B991FB;}
	.st73{fill:#3F0A58;}
	.st74{fill:#FBB03B;}
	.st75{fill:#E78300;}
	.st76{fill:#D66F00;}
	.st77{fill:#D66300;}
	.st78{fill:#F98F10;}
</style>
<path class="st42" d="M130,205.7c0,36-8.1,57.4-24.2,99.7c-19.7,51.8-62.7,82.4-57.7,92.8c8,16.9,49.3,20.7,81.9,17.8
	s113.7-1.7,191.4-63.2c63.1-49.9,63.2-96.7,59.2-146.5c-4.1-52.1-50.4-110.9-91.8-140.6C244.9,34,198.1,7.8,113.2,0.9
	s-29.6,26.2-8.9,69.6C119,101.2,130,158.2,130,205.7z"/>
<g>
	<path class="st43" d="M25.9,208.1c21.2-41.9,13.3-70.1,11.8-90.8S48.6,95.6,67.8,107c14.3,8.4,44.6,38.3,59.2,53.1
		c1.9,15.4,2.9,30.9,2.9,45.5c0,16.5-1.7,30-5.1,43.8C66.6,275.4,5.5,277.9,1.2,268.3C-3.2,258.5,4.6,250.1,25.9,208.1z"/>
</g>
<path class="st44" d="M418.1,223.4c-6.7-12.1-19.7-19.2-42.4-20.2c-22.7-1-74,1.4-80.4,29.1c-7.3,31.6,13.3,47.4,38.5,49.3
	s61.5,2.8,77-6.9C423.1,267,427.3,240.1,418.1,223.4z"/>
<ellipse class="st45" cx="396.9" cy="244.4" rx="14.3" ry="20.8"/>
<g>
	<path class="st33" d="M330.6,206.7c0.2,0,0.3-0.1,0.5-0.1c-0.1-0.1-0.2-0.1-0.3-0.1C330.7,206.6,330.6,206.6,330.6,206.7z"/>
	<path class="st14" d="M330.6,206.7c0.1-0.1,0.2-0.2,0.3-0.3c0.1,0.1,0.2,0.1,0.3,0.1c16-3.6,33.7-3.9,44.6-3.4
		c5.3,0.2,10.5,0.7,15.3,1.5c13.4-9.7,22.1-25.4,22.1-43.2c0-29.5-23.9-53.5-53.5-53.5c-12,0-23,4-31.9,10.6
		c-11.1-10.3-25.9-16.7-42.3-16.7c-34.3,0-62.2,27.8-62.2,62.2c0,34.3,27.8,62.2,62.2,62.2c4.5,0,8.8-0.5,13-1.4
		C304.4,215.4,316.8,209.9,330.6,206.7z"/>
</g>
<circle class="st46" cx="362.7" cy="163.5" r="24.6"/>
<circle class="st46" cx="287.2" cy="165.3" r="28.7"/>
<path class="st47" d="M260.7,256.5c5.1,10,5.9,22.6-15.5,42.2c-27.1,24.7-62.9,40-78.5,5.9s-7.4-48.1,20.7-55.5
	S251.8,239.1,260.7,256.5z"/>
<path class="st48" d="M250,256.9c0,0-45.1,16.7-51.8,18.5c-6.7,1.9-9.3-4.4-2.2-7.8S232.6,256.1,250,256.9z"/>
<path class="st48" d="M253.9,268c0,0-43.6,20.5-49.5,23.9c-6,3.4-3.3,9.7,4,7C215.7,296.3,242.3,281,253.9,268z"/>
<g>
	<path class="st49" d="M68.3,173.1c0,0-4.4-11.3,13.8-14.8c0,0,25.1,7.9,47.1,25.8c0.2,3.8,0.4,7.6,0.5,11.4
		C118.5,189.1,92,175.4,68.3,173.1z"/>
	<path class="st49" d="M71.3,209.6C49.1,199.3,54,185.5,54,185.5c22.3-1.4,56.9,12.9,76,21.8c0,2.3-0.1,4.6-0.2,6.8
		C101.1,206,71.3,209.6,71.3,209.6z"/>
	<path class="st49" d="M64.8,241.2c0,0-19.7,0-21.2-13.8c0,0,50.6-8.8,84.9,2.3c-0.3,2.5-0.7,5-1.1,7.5
		C115.7,236.1,85.8,234.2,64.8,241.2z"/>
</g>
<ellipse class="st50" cx="184.9" cy="186.6" rx="10" ry="13"/>
<ellipse transform="matrix(0.9438 -0.3305 0.3305 0.9438 -111.1127 79.2289)" class="st50" cx="177.5" cy="366.4" rx="13.8" ry="17.9"/>
<ellipse transform="matrix(0.7686 -0.6397 0.6397 0.7686 -161.2282 233.0352)" class="st50" cx="241.5" cy="339.4" rx="23.6" ry="18.2"/>
</svg>
