<?xml version="1.0" encoding="utf-8"?>
<!-- Generator: Adobe Illustrator 21.1.0, SVG Export Plug-In . SVG Version: 6.00 Build 0)  -->
<svg version="1.1" id="Capa_1" xmlns="http://www.w3.org/2000/svg" xmlns:xlink="http://www.w3.org/1999/xlink" x="0px" y="0px"
	 viewBox="0 0 610.2 777.9" style="enable-background:new 0 0 610.2 777.9;" xml:space="preserve">
<style type="text/css">
	.st0{fill:#FFCE00;}
	.st1{fill:#FFFDFF;}
	.st2{fill:#FFBF00;}
	.st3{fill:#FFFDEF;}
	.st4{fill:#964000;}
	.st5{fill:#FFFCF8;}
	.st6{fill:#FF60A8;}
	.st7{fill:#FF2391;}
	.st8{fill:#FF4C97;}
	.st9{fill:#BA0445;}
	.st10{fill:#FF529E;}
	.st11{fill:#ED2B7D;}
	.st12{fill:#0058C0;}
	.st13{fill:#0043AB;}
	.st14{fill:#FFFFFF;}
	.st15{fill:#0042AF;}
	.st16{fill:#003565;}
	.st17{fill:#FF897B;}
	.st18{fill:#FF695A;}
	.st19{fill:#4F0000;}
	.st20{fill:#FF5A4E;}
	.st21{fill:#FF584D;}
	.st22{fill:#FF5349;}
	.st23{fill:#FFFEFF;}
	.st24{fill:#E6E6E6;}
	.st25{fill:#FF605C;}
	.st26{fill:#AF4945;}
	.st27{opacity:0.48;fill:#F2F2F2;}
	.st28{fill:#95C101;}
	.st29{fill:#59AC00;}
	.st30{fill:#70A400;}
	.st31{fill:#529D00;}
	.st32{fill:#E75EDE;}
	.st33{fill:none;}
	.st34{fill:#FFBCF4;}
	.st35{fill:#000007;}
	.st36{fill:#DB54C0;}
	.st37{fill:#BD40A9;}
	.st38{fill:#9C1426;}
	.st39{fill:#F77136;}
	.st40{fill:#E658D6;}
	.st41{fill:#E751D0;}
	.st42{fill:#FF475B;}
	.st43{fill:#CC163F;}
	.st44{fill:#FEC914;}
	.st45{fill:#9E5E0A;}
	.st46{fill:#040008;}
	.st47{fill:#DC1B43;}
	.st48{fill:#AB0328;}
	.st49{fill:#8E0E25;}
	.st50{fill:#FB2D42;}
	.st51{fill:#FFC000;}
	.st52{fill:#F40560;}
	.st53{fill:#FF719F;}
	.st54{fill:#F7E700;}
	.st55{fill:#F9539E;}
	.st56{fill:#FDE900;}
	.st57{fill:#00B681;}
	.st58{fill:#00EDC6;}
	.st59{fill:#710227;}
	.st60{fill:#C5075D;}
	.st61{fill:#FAC300;}
	.st62{fill:#00F5C7;}
	.st63{fill:#00725B;}
	.st64{fill:#8CFFF5;}
	.st65{fill:#A0FFF5;}
	.st66{fill:#73D29B;}
	.st67{fill:#7E4CD2;}
	.st68{fill:#4D299A;}
	.st69{fill:#562CA0;}
	.st70{fill:#41178A;}
	.st71{fill:#330C73;}
	.st72{fill:#B991FB;}
	.st73{fill:#3F0A58;}
	.st74{fill:#FBB03B;}
	.st75{fill:#E78300;}
	.st76{fill:#D66F00;}
	.st77{fill:#D66300;}
	.st78{fill:#F98F10;}
</style>
<path class="st51" d="M173.2,694.4c-3.5,30.9-8.9,55.6-12.4,68.1c9.7-3.7,29.2-9.4,49.5-4.6c-6-22.3-14.1-64.4-14.1-64.4
	C187.7,696.3,173.2,694.4,173.2,694.4z"/>
<path class="st51" d="M129.2,684.5c0,0-16.1,43.1-24.5,63.1c10.7-0.8,29.8,0,44.9,12.8c0.6-22.3,3.3-67.5,3.3-67.5
	C137,690.3,129.2,684.5,129.2,684.5z"/>
<path class="st52" d="M226.3,571.3c0,0-39.3-8.1-62.5-39.6c-23.2-31.6-32.2-36.7-43.2-43.2s-29-43.8-29-43.8s18.2-27.7,45.7-37.8
	c0,0-16.4-20.8-17.4-51.7c0,0,22.7-13.5,49.8-12.1c0,0,63.8,41.5,74.4,116.4l7.7,49.3l8.2,20.8L226.3,571.3z"/>
<g>
	<path class="st14" d="M91.7,444.8c0,0,18.2-27.7,45.7-37.8c0,0-16.4-20.8-17.4-51.7c0,0,22.7-13.5,49.8-12.1
		c-53.9-36.6-122.5-19.4-153.5,31.4c-35.9,58.9-5.2,121.7,20,144.3c25.1,22.5,60.5,18,60.5,18s1.3-6.7-3.9-14.5
		c-7.6-11.4-16.4-20.5-7.1-30.6c8.3-9,24.5-6.3,34.4-3.5C109.3,481.2,91.7,444.8,91.7,444.8z"/>
</g>
<path class="st53" d="M182.5,671.5c0,0,15.5-8.4,30.9-10.9c15.5-2.6,47-10.9,63.1-40.6c0,0,46.4,39.9,97.3-5.2
	c50.9-45.1,49.6-100.5,41.9-150.7c0,0,75.4,6.1,110.6-40.3l17.4-2.4v-24.6c0,0,29.5-15,40.1-25.6c0,0-17.4-26.1-23.2-31.9
	c-5.8-5.8,23.8-48.5,13.5-112.9c0,0,34.8-76,36.1-181.6c0,0-117.2,70.8-163.6,110.8c0,0-61.8-10.3-101.8-6.4
	c0,0-81.2-86.3-159.7-110.8c0,0,9,128.8,30.9,167.5c0,0-18,55.4-11.6,90.2L180,314l32.8,40.3l-14.5,24.2l20.3,10.6
	c0,0,41.5,43.5,93.7,55.1c0,0-93.2-3.4-141.1,64.2c0,0-18.7,7.9-19.3,16.9c0,0,4.5,5.5,13.2,3.2c0,0-7.1,14.2-4.5,22.9
	c0,0,13.5-1.9,19-5.2c0,0-1.3,12.6,1.3,16.4c0,0,15.5-6.4,17.4-10.6c0,0,7.4,7.7,10.6,8.4c0,0,6.4-20,6.4-32.8
	c0,0,30.2-38.4,89.8-44.9c-6.9,11.9-28.2,20.8-40.7,25c-15.4,5.1-37.8,14.2-38.2,63.8c0,0-20.3,12.6-22.5,27.1
	c0,0-45.7-9.7-58.3,14.8S157.4,672.5,182.5,671.5z"/>
<g>
	<path class="st54" d="M182.5,671.5c-25.1,1-49.6-33.8-37-58.3c6.3-12.2,20.7-15.9,33.7-16.6c-6.3-2.1-28.5-7.1-43.7,17.5
		c-17.9,29-40.6,115.5-41.1,143c0,0,1.7,7,6-0.2s28.7-72.5,28.7-72.5s7.7,5.8,23.7,8.5c0,0-3.6,61.3-3.4,76.3c0.2,15,6.5,8,9.7-1.4
		c3.1-9.4,9.9-37.2,14-73.4c0,0,14.5,1.9,22.9-1c0,0,11.1,57.5,16.9,73.7c5.8,16.2,7-5.1,6.5-15.2s-4.6-81.2-4.6-91.3
		c0,0,0-0.1,0-0.3c-0.5,0.1-1,0.2-1.5,0.3C198,663.1,182.5,671.5,182.5,671.5z"/>
</g>
<g>
	<path class="st55" d="M276.6,620c-5.9,10.8-13.8,18.8-22.3,24.7c5.1,7,23.5,28.9,50.3,24.2c25.1-4.3,40.4-28.5,45.8-38.7
		C309.5,648.4,276.6,620,276.6,620z"/>
</g>
<path class="st56" d="M309.8,599c0,0,26.1,0.6,46.4-4.2c0,0,25.1,18.7,35.4,20.3c0,0,10.3-26.1,10.9-43.2c0,0,30-20.3,36.1-28.3
	c0,0-25.1-18-36.7-22.5c0,0-9.3-28.6-17.7-41.8c0,0,15-5.7,20.4-15.7c0,0-16.5-0.5-24.2-3c0,0-4,6-10.4,9.2l11.5,9.1
	c0,0-24.5,14.2-34.8,31.9c0,0-29.6,1.6-46.7,5.2c0,0,11.9,32.5,20.3,41.5C320.4,557.5,314.3,579.4,309.8,599z"/>
<g>
	<path class="st55" d="M592.5,444.8c0,0,8-7,11.4-14.4c0.7-1.5-0.6-3.3-2.3-3.1c-4.3,0.3-11.6,1.3-15.6,3.7c0,0,0.5-11.5,0-18.4
		c-0.1-1.6-1.8-2.6-3.3-1.9c-3.8,1.8-10.4,5.5-14.8,10.6c0,0-1.8-1.7-5.2-6c-1.4-1.8-3.2-3.7-5.1-4.8c-1.4-0.8-3.1,0.1-3.4,1.6
		c-0.5,3.5-1.5,9.8-2.8,16.9c-1.9,11-9.3,20-31.2,26.1c-21.4,6-50.7,12.5-77.5,8.4c-15.9,1.6-27.2,0.7-27.2,0.7
		c2,13.3,3.6,27,3.9,40.7c14.5,1.9,107.7,11.6,161.6-39.4c0,0,17.5-4.9,24.7-8.5c1.3-0.7,1.6-2.4,0.6-3.5
		C603.7,450.2,598,444.8,592.5,444.8z"/>
</g>
<g>
	<path class="st51" d="M226.3,571.3c-3.6-0.7-12.6-3.7-14.9-4.7c-2.5,3.5-10,15.5-12,31c3,0.4,4.4,0.9,4.4,0.9
		C206.2,584.9,223.6,573.1,226.3,571.3z"/>
</g>
<g>
	<path class="st54" d="M247.9,696.9c3.9,16.4,6.8,7.7,6.1-1c-0.5-6.9-3.2-36.4-4.4-48.4c-3.6,2.2-7.2,4-10.8,5.5
		C240.5,661.6,244.8,683.9,247.9,696.9z"/>
	<path class="st54" d="M287.5,668.4c2.5,5.9,7.5,16.8,11.9,19.6c4.2,2.7,1.1-10.2-1.3-18.4C294.4,669.6,290.9,669.2,287.5,668.4z"/>
</g>
<path class="st54" d="M214.9,660.3c-0.5,0.1-1,0.2-1.5,0.3C213.9,660.5,214.4,660.4,214.9,660.3
	C214.9,660.3,214.9,660.3,214.9,660.3z"/>
<path class="st51" d="M214.9,660.3c0,0.2,0,0.3,0,0.3c0,3.9,0.6,17,1.4,32.2c6.2-1.5,19.4-3.4,31.3,3.2c-3.1-13.2-7.2-34.5-8.8-42.8
	C229.9,657.1,221.3,659.1,214.9,660.3z"/>
<path class="st51" d="M287.5,668.4c-17.5-4.1-29.3-18.3-33.3-23.7c0,0,0.1-0.1,0.1-0.1c-1.5,1.1-3.1,2.1-4.7,3
	c0.9,9.6,2.8,30.3,3.8,41.7c6.6-3.5,24.5-11.7,40-8.8C291.1,676.4,288.9,671.7,287.5,668.4z"/>
<path class="st54" d="M287.5,668.4C287.5,668.4,287.5,668.4,287.5,668.4c1.6,0.4,3.3,0.7,5,0.9C290.8,669,289.1,668.8,287.5,668.4z"
	/>
<path class="st56" d="M326.3,405.3c8.6,0.4,27.3,2.4,28,22.5c0.6,17.3-13.9,24-22.2,24.6c-25.6,1.8-73.6-6.9-96.8-34
	c-33.2-38.8-30.6-129.5-30.9-160.1c-0.3-30.6-10.9-254.7-10.9-254.7s18.8-7.7,46.9-0.5c0,0,4.3,258.4,10.1,313.5
	C256.3,371.7,257.7,402.4,326.3,405.3z"/>
<path class="st57" d="M388.3,421.3c-3.7-25.4-20.8-44-38.4-41.5c-11.3,1.6-20,11.7-23.7,25.5c0.1,0,0.1,0,0.2,0
	c0.6,0,1.2,0.1,1.9,0.1c3.1-6.7,8-11.3,13.9-12.2c12.3-1.8,24.5,12.8,27.4,32.5c2.8,19.7-4.8,37.2-17.1,38.9
	c-7.4,1.1-14.9-3.9-20.2-12.3c0,0-0.1,0-0.1,0c7.5,13.3,19.2,21.3,31.1,19.5C380.7,469.4,392,446.7,388.3,421.3z"/>
<path class="st58" d="M354.4,427.7c0.6,17.3-13.8,24-22.1,24.6c5.3,8.4,12.7,13.4,20.2,12.3c12.3-1.8,19.9-19.2,17.1-38.9
	c-2.8-19.7-15.1-34.3-27.4-32.5c-6,0.9-10.8,5.4-13.9,12.2C337.4,406,353.7,409,354.4,427.7z"/>
<path class="st57" d="M331.2,450.6c0.3,0.6,0.6,1.1,0.9,1.7c0,0,0.1,0,0.1,0C331.9,451.8,331.6,451.2,331.2,450.6z"/>
<g>
	<path class="st59" d="M444.2,389.6c-12.1,3.6-29.2,2.4-51.4-5.8c-16.2-6-21.1-0.8-22.6,2.5c9,7.3,15.9,19.9,18.1,35.1
		c0.9,6.2,0.9,12.1,0.1,17.7c37.4,19,61.1-15.6,64.9-26.3C457.2,401.9,456.3,385.9,444.2,389.6z"/>
</g>
<g>
	<path class="st60" d="M384.2,406.1c1.9,4.6,3.3,9.7,4.1,15.1c0.9,6.2,0.9,12.1,0.1,17.7c19.4,9.9,35.2,5.2,46.4-3
		C423.3,409.5,396.7,406.1,384.2,406.1z"/>
</g>
<ellipse class="st14" cx="329.4" cy="298.6" rx="47" ry="50.8"/>
<path d="M318.9,256.7c-6.9,0-13.3,2.1-18.8,5.7c3.6,0.8,6.2,4,6.2,7.7c0,4.4-3.6,8-8.1,8c-3.9,0-7.1-2.7-7.9-6.3
	c-4.9,6.8-7.9,15.4-7.9,24.8c0,22.1,16.4,39.9,36.6,39.9s36.6-17.9,36.6-39.9C355.5,274.6,339.1,256.7,318.9,256.7z"/>
<ellipse class="st14" cx="507.5" cy="327.6" rx="41.5" ry="50.8"/>
<path d="M498.3,285.7c-6.1,0-11.7,2.1-16.6,5.7c3.2,0.8,5.5,4,5.5,7.7c0,4.4-3.2,8-7.2,8c-3.4,0-6.3-2.7-7-6.3
	c-4.4,6.8-7,15.4-7,24.8c0,22.1,14.5,39.9,32.3,39.9c17.9,0,32.3-17.9,32.3-39.9C530.6,303.6,516.1,285.7,498.3,285.7z"/>
<ellipse transform="matrix(0.1664 -0.9861 0.9861 0.1664 18.8221 704.6725)" cx="426.2" cy="341.2" rx="24.9" ry="33.7"/>
<path class="st61" d="M199.6,301.8c0,0,31.9,12.6,54.7-2.9c0,0,5.5-21.3-1.9-40.6c0,0-31.2-10.9-54.1,3.2
	C198.3,261.5,194.5,278.9,199.6,301.8z"/>
<path class="st61" d="M202.2,206c0,0,24.3-4,43.2-1c0,0,2.1-7.9-0.6-14c0,0-23.3-7.1-42.8,1.9C201.9,192.9,199.3,199.1,202.2,206z"
	/>
<path class="st61" d="M200.7,167.8c0,0,24.3-4,43.2-1c0,0,2.1-7.9-0.6-14c0,0-23.3-7.1-42.8,1.9
	C200.4,154.8,197.8,160.9,200.7,167.8z"/>
<path class="st61" d="M199.2,134.3c0,0,25-4,44.4-1c0,0,2.2-7.9-0.7-14c0,0-24-7.1-44,1.9C198.8,121.2,196.2,127.3,199.2,134.3z"/>
<path class="st62" d="M426,88c37.8,2.4,114.9,12.6,145.7,34.5c30.7,21.7,37.2,68.9-1.4,87.3c-39.2,18.6-88.2,6.2-116.6-17.4
	c-23.7-19.7-32.4-20.2-57.3-2.6c-22,15.5-70.8,30.9-116.6,10.3s-43.3-74-18.7-92.7C289.8,85.4,333.2,82,426,88z"/>
<g>
	<path class="st63" d="M570.3,209.7c-39.2,18.6-88.2,6.2-116.6-17.4c-23.7-19.7-32.4-20.2-57.3-2.6c-22,15.5-70.8,30.9-116.6,10.3
		c-26.2-11.8-36.8-34.7-36.2-55.4c-4.9,15.1-9.6,40.6,6.5,58c24.2,26.1,97.6,31.9,129.5,15.5s32.4-23.2,46.9-23.7
		s27.1,25.6,59.9,35.7C518.3,240,589,249.9,595,182.5C591.6,193.5,583.7,203.3,570.3,209.7z"/>
</g>
<path class="st64" d="M415.2,106c34.3,2.4,102.3,7.4,134.5,28.3c29.5,19.1,27.8,51.4,0.2,57.7c-27.5,6.3-68.1-3.7-86-18.7
	c-17.9-15-34.9-29.6-65.2-12.2c-29.4,16.9-40.1,26.1-78.3,23.7c-38.2-2.4-57.8-27.2-47.5-52.7C281.8,110.6,343,100.9,415.2,106z"/>
<path class="st65" d="M415.2,106c34.3,2.4,102.3,7.4,134.5,28.3c29.5,19.1,27.8,51.4,0.2,57.7c-27.5,6.3-68.1-3.7-86-18.7
	c-17.9-15-34.9-29.6-65.2-12.2c-29.4,16.9-40.1,26.1-78.3,23.7c-38.2-2.4-62.3-26.7-47.5-52.7C284.5,111.9,343,100.9,415.2,106z"/>
<g>
	<path class="st63" d="M549.8,134.3c-32.3-20.8-100.2-25.8-134.5-28.3c-72.2-5.1-130.7,5.9-142.2,26.1c-2.9,5-4.2,10-4.4,14.7
		c2.1-8.6,12.5-27.7,64.1-34.5c57-7.5,156.5,3.9,195.4,17.1c22.7,7.8,40.7,23.5,41,48C574.8,164.6,568.9,146.6,549.8,134.3z"/>
</g>
<g>
	<path class="st56" d="M522.3,102.6l15.8-32.7l-45.1,9L477.5,39l-36.1,27.1l-31.6-38.6l-1.2,59.5c5.6,0.3,11.3,0.6,17.3,1
		C449.7,89.5,488.8,94,522.3,102.6z"/>
</g>
<path class="st66" d="M591.3,200.7c-5.1,14.8-14.5,24.1-25.9,29.6c-0.6,1.4-2.5,7.3,1.4,12.9c4.5,6.4,11.6,1.9,17.7-5.5
	C590.3,230.6,605.9,206.7,591.3,200.7z"/>
<g>
	<path class="st66" d="M265.3,213.7c-6.1-3.2-11.3-6.8-15.3-11.1c-1.5-1.7-2.8-3.4-4-5.2c0.2,4.1-0.7,7.6-0.7,7.6
		c-0.1,0-0.2,0-0.2,0c0.2,7.8,0.5,15.6,0.8,23.1c4.7,6.1,11.2,8.7,17.7,4.5C269.7,228.6,268,220.3,265.3,213.7z"/>
</g>
</svg>
