<?xml version="1.0" encoding="utf-8"?>
<!-- Generator: Adobe Illustrator 21.1.0, SVG Export Plug-In . SVG Version: 6.00 Build 0)  -->
<svg version="1.1" id="Capa_1" xmlns="http://www.w3.org/2000/svg" xmlns:xlink="http://www.w3.org/1999/xlink" x="0px" y="0px"
	 viewBox="0 0 1743.1 794.7" style="enable-background:new 0 0 1743.1 794.7;" xml:space="preserve">
<style type="text/css">
	.st0{fill:#FFCE00;}
	.st1{fill:#FFFDFF;}
	.st2{fill:#FFBF00;}
	.st3{fill:#FFFDEF;}
	.st4{fill:#964000;}
	.st5{fill:#FFFCF8;}
	.st6{fill:#FF60A8;}
	.st7{fill:#FF2391;}
	.st8{fill:#FF4C97;}
	.st9{fill:#BA0445;}
	.st10{fill:#FF529E;}
	.st11{fill:#ED2B7D;}
	.st12{fill:#0058C0;}
	.st13{fill:#0043AB;}
	.st14{fill:#FFFFFF;}
	.st15{fill:#0042AF;}
	.st16{fill:#003565;}
	.st17{fill:#FF897B;}
	.st18{fill:#FF695A;}
	.st19{fill:#4F0000;}
	.st20{fill:#FF5A4E;}
	.st21{fill:#FF584D;}
	.st22{fill:#FF5349;}
	.st23{fill:#FFFEFF;}
	.st24{fill:#E6E6E6;}
	.st25{fill:#FF605C;}
	.st26{fill:#AF4945;}
	.st27{opacity:0.48;fill:#F2F2F2;}
	.st28{fill:#95C101;}
	.st29{fill:#59AC00;}
	.st30{fill:#70A400;}
	.st31{fill:#529D00;}
	.st32{fill:#E75EDE;}
	.st33{fill:none;}
	.st34{fill:#FFBCF4;}
	.st35{fill:#000007;}
	.st36{fill:#DB54C0;}
	.st37{fill:#BD40A9;}
	.st38{fill:#9C1426;}
	.st39{fill:#F77136;}
	.st40{fill:#E658D6;}
	.st41{fill:#E751D0;}
	.st42{fill:#FF475B;}
	.st43{fill:#CC163F;}
	.st44{fill:#FEC914;}
	.st45{fill:#9E5E0A;}
	.st46{fill:#040008;}
	.st47{fill:#DC1B43;}
	.st48{fill:#AB0328;}
	.st49{fill:#8E0E25;}
	.st50{fill:#FB2D42;}
	.st51{fill:#FFC000;}
	.st52{fill:#F40560;}
	.st53{fill:#FF719F;}
	.st54{fill:#F7E700;}
	.st55{fill:#F9539E;}
	.st56{fill:#FDE900;}
	.st57{fill:#00B681;}
	.st58{fill:#00EDC6;}
	.st59{fill:#710227;}
	.st60{fill:#C5075D;}
	.st61{fill:#FAC300;}
	.st62{fill:#00F5C7;}
	.st63{fill:#00725B;}
	.st64{fill:#8CFFF5;}
	.st65{fill:#A0FFF5;}
	.st66{fill:#73D29B;}
	.st67{fill:#7E4CD2;}
	.st68{fill:#4D299A;}
	.st69{fill:#562CA0;}
	.st70{fill:#41178A;}
	.st71{fill:#330C73;}
	.st72{fill:#B991FB;}
	.st73{fill:#3F0A58;}
	.st74{fill:#FBB03B;}
	.st75{fill:#E78300;}
	.st76{fill:#D66F00;}
	.st77{fill:#D66300;}
	.st78{fill:#F98F10;}
</style>
<path class="st12" d="M31.7,0c0,0,128.3,265.4,171,317c0,0,411.4-11.8,660.5-69.3s319.9-104.7,339.1-103.2
	c19.2,1.5,277.2,53.1,340.6,72.2c0,0,116.2-25.4,179.9-30.5c6.7-0.5,21.4-1.7,20.1,17.7c-1.5,23.6-26,216.2-204.4,300.3
	c0,0-140.1-35.4-219.7-92.9c0,0-57.5,112.1-243.3,165.1c0,0-11.8,157.8-206.4,218.2c0,0-13.3-184.3-11.8-224.1
	c0,0-396.6-72.2-659-190.2c0,0-85.5,79.6-160.7,271.3c0,0-79.6-144.5,20.6-306.7C58.3,345-52.8,235.9,31.7,0z"/>
<g>
	<path class="st13" d="M1085.9,185.7c-37-52.6-167.2-200.3-430.5-143c0,0,132.9,80,151.6,216.7c19.5-3.7,38.3-7.6,56.3-11.7
		C963.7,224.5,1035.1,203,1085.9,185.7z"/>
</g>
<path class="st14" d="M857.4,570.6c0,0-365.4-66.6-626.8-176.2C332.1,463,539.7,561.7,805.8,616.3c17.9,3.7,35.5,6.8,53,9.5
	C857.6,601.4,857,581,857.4,570.6z"/>
<path class="st15" d="M1295.8,413.3c0,0-12.8-32.4,26.5-27C1322.3,386.3,1262.4,356.3,1295.8,413.3z"/>
<path class="st14" d="M1256.6,286.6c0-24.5,20-44.4,44.6-44.4c1.9,0,3.8,0.2,5.6,0.4c-8.5-7.1-19.1-11.4-30.7-11.4
	c-27.5,0-49.8,24-49.8,53.6s22.3,53.6,49.8,53.6c9.2,0,17.7-2.7,25.1-7.4l0,0C1276.5,331,1256.6,311.1,1256.6,286.6z"/>
<path d="M1325.9,284.7c0-17.1-7.5-32.4-19.1-42.2c-1.8-0.2-3.7-0.4-5.6-0.4c-24.6,0-44.6,19.9-44.6,44.4c0,24.5,20,44.4,44.6,44.4
	l0,0C1315.9,321.7,1325.9,304.5,1325.9,284.7z"/>
<ellipse transform="matrix(0.1736 -0.9848 0.9848 0.1736 1129.0295 1863.7117)" class="st16" cx="1674.9" cy="259.2" rx="18" ry="16.1"/>
<path class="st15" d="M1142.9,383.8c0,0-10.6,85.4,26.5,124.3C1169.5,508.2,1101.2,472.3,1142.9,383.8z"/>
<path class="st15" d="M1114,386.4c0,0-22.2,80.1,14.7,125.7C1128.7,512.1,1060.9,465.4,1114,386.4z"/>
<path class="st15" d="M1084.3,376.1c0,0-34.2,85.5,1.6,134.7C1085.9,510.8,1021.6,465.3,1084.3,376.1z"/>
<path class="st14" d="M1343.7,447.5l16-10.9c-5.2-2.8-10.4-5.7-15.4-8.7C1344,436.7,1343.7,447.5,1343.7,447.5z"/>
<path class="st14" d="M1386.2,474l21.5-14.5c-7.1-3.1-14.3-6.2-21.3-9.6C1386.3,459.4,1386.2,474,1386.2,474z"/>
<path class="st14" d="M1443.2,511.1l31.2-26.2c-9.8-3.3-20.2-7-31-11.1L1443.2,511.1z"/>
<path class="st14" d="M1502.4,542.6l34.4-38.8c-4.7-1.2-18.4-4.9-37.4-10.8L1502.4,542.6z"/>
<path class="st14" d="M1428.1,542.4l4-49.2l-40.6,21c-8.3-7.5-15.6-15-22.1-22.4l3.5-29l-20.9,6.9c-15.2-21.8-23.7-41.4-28.2-54.8
	c-1.7-1.1-3.3-2.3-4.9-3.5c0,0-57.5,112.1-243.3,165.1c0,0-2,26.5-17.7,61.9c233.6-5.9,395.2-81.1,395.2-81.1
	C1444.2,552.5,1435.9,547.5,1428.1,542.4z"/>
</svg>
