<?xml version="1.0" encoding="utf-8"?>
<!-- Generator: Adobe Illustrator 21.1.0, SVG Export Plug-In . SVG Version: 6.00 Build 0)  -->
<svg version="1.1" id="Capa_1" xmlns="http://www.w3.org/2000/svg" xmlns:xlink="http://www.w3.org/1999/xlink" x="0px" y="0px"
	 viewBox="0 0 1157.5 626.6" style="enable-background:new 0 0 1157.5 626.6;" xml:space="preserve">
<style type="text/css">
	.st0{fill:#FFCE00;}
	.st1{fill:#FFFDFF;}
	.st2{fill:#FFBF00;}
	.st3{fill:#FFFDEF;}
	.st4{fill:#964000;}
	.st5{fill:#FFFCF8;}
	.st6{fill:#FF60A8;}
	.st7{fill:#FF2391;}
	.st8{fill:#FF4C97;}
	.st9{fill:#BA0445;}
	.st10{fill:#FF529E;}
	.st11{fill:#ED2B7D;}
	.st12{fill:#0058C0;}
	.st13{fill:#0043AB;}
	.st14{fill:#FFFFFF;}
	.st15{fill:#0042AF;}
	.st16{fill:#003565;}
	.st17{fill:#FF897B;}
	.st18{fill:#FF695A;}
	.st19{fill:#4F0000;}
	.st20{fill:#FF5A4E;}
	.st21{fill:#FF584D;}
	.st22{fill:#FF5349;}
	.st23{fill:#FFFEFF;}
	.st24{fill:#E6E6E6;}
	.st25{fill:#FF605C;}
	.st26{fill:#AF4945;}
	.st27{opacity:0.48;fill:#F2F2F2;}
	.st28{fill:#95C101;}
	.st29{fill:#59AC00;}
	.st30{fill:#70A400;}
	.st31{fill:#529D00;}
	.st32{fill:#E75EDE;}
	.st33{fill:none;}
	.st34{fill:#FFBCF4;}
	.st35{fill:#000007;}
	.st36{fill:#DB54C0;}
	.st37{fill:#BD40A9;}
	.st38{fill:#9C1426;}
	.st39{fill:#F77136;}
	.st40{fill:#E658D6;}
	.st41{fill:#E751D0;}
	.st42{fill:#FF475B;}
	.st43{fill:#CC163F;}
	.st44{fill:#FEC914;}
	.st45{fill:#9E5E0A;}
	.st46{fill:#040008;}
	.st47{fill:#DC1B43;}
	.st48{fill:#AB0328;}
	.st49{fill:#8E0E25;}
	.st50{fill:#FB2D42;}
	.st51{fill:#FFC000;}
	.st52{fill:#F40560;}
	.st53{fill:#FF719F;}
	.st54{fill:#F7E700;}
	.st55{fill:#F9539E;}
	.st56{fill:#FDE900;}
	.st57{fill:#00B681;}
	.st58{fill:#00EDC6;}
	.st59{fill:#710227;}
	.st60{fill:#C5075D;}
	.st61{fill:#FAC300;}
	.st62{fill:#00F5C7;}
	.st63{fill:#00725B;}
	.st64{fill:#8CFFF5;}
	.st65{fill:#A0FFF5;}
	.st66{fill:#73D29B;}
	.st67{fill:#7E4CD2;}
	.st68{fill:#4D299A;}
	.st69{fill:#562CA0;}
	.st70{fill:#41178A;}
	.st71{fill:#330C73;}
	.st72{fill:#B991FB;}
	.st73{fill:#3F0A58;}
	.st74{fill:#FBB03B;}
	.st75{fill:#E78300;}
	.st76{fill:#D66F00;}
	.st77{fill:#D66300;}
	.st78{fill:#F98F10;}
</style>
<path class="st0" d="M914.8,182.5c-135.6-47-222-62.2-426.3,3C311,242.1,180.6,224,180.6,224C183.5,81.9,50.3,19.7,50.3,19.7
	C103.6,215.1,0,360.2,0,360.2c112.5,0,159.9-68.1,159.9-68.1c2,3.7,4.8,8.1,8.2,13c108.8,91.2,308.5,158.7,308.5,158.7
	c1.2,29.1,4.9,61.6,8.8,89.9c5.7,40.9,11.9,73,11.9,73c28.3-10.1,52.7-28.1,72.7-47.4c38.6-37.4,60.5-79.9,60.5-79.9
	C790.4,520,917.7,372,917.7,372c48.9,64.6,95.2,95.5,121,109.1c90.9-80.6,118.8-183.1,118.8-183.1S1059.8,232.9,914.8,182.5z"/>
<path class="st1" d="M168.1,305.1c43.3,60.9,196.6,203.7,314.4,247.5c1,0.4,1.9,0.7,2.9,1.1c-3.9-28.3-7.6-60.8-8.8-89.9
	C476.6,463.8,276.9,396.3,168.1,305.1z"/>
<path class="st1" d="M917.7,372c0,0-127.3,148-287.2,127.3c0,0-21.9,42.4-60.5,79.9c102,23.5,212.4,21.6,347.7-26.6
	c49.2-17.5,89-43.2,121-71.5C1012.9,467.5,966.6,436.6,917.7,372z"/>
<g>
	<path class="st2" d="M731.5,142.1c-27.2-32.5-160.1-175.9-353-134.7c0,0,109.8,70.4,112.5,177.3
		C593.9,152.1,666.9,139.9,731.5,142.1z"/>
</g>
<path class="st3" d="M784,253c0-31,24.4-56.1,54.5-56.1c2.2,0,4.4,0.2,6.6,0.5c-10-10.1-23.2-16.2-37.7-16.2
	c-31.2,0-56.5,28.3-56.5,63.3c0,34.9,25.3,63.3,56.5,63.3c4.5,0,8.8-0.6,13-1.7C799.3,298.2,784,277.4,784,253z"/>
<path d="M864,244.3c0-18.7-7.3-35.5-18.8-47c-2.2-0.3-4.4-0.5-6.6-0.5c-30.1,0-54.5,25.1-54.5,56.1c0,24.5,15.2,45.2,36.4,52.9
	C845.4,299.3,864,274.3,864,244.3z"/>
<ellipse class="st4" cx="1082.3" cy="311.1" rx="15" ry="17.1"/>
</svg>
