<?xml version="1.0" encoding="utf-8"?>
<!-- Generator: Adobe Illustrator 21.1.0, SVG Export Plug-In . SVG Version: 6.00 Build 0)  -->
<svg version="1.1" id="Capa_1" xmlns="http://www.w3.org/2000/svg" xmlns:xlink="http://www.w3.org/1999/xlink" x="0px" y="0px"
	 viewBox="0 0 1425.4 675.5" style="enable-background:new 0 0 1425.4 675.5;" xml:space="preserve">
<style type="text/css">
	.st0{fill:#FFCE00;}
	.st1{fill:#FFFDFF;}
	.st2{fill:#FFBF00;}
	.st3{fill:#FFFDEF;}
	.st4{fill:#964000;}
	.st5{fill:#FFFCF8;}
	.st6{fill:#FF60A8;}
	.st7{fill:#FF2391;}
	.st8{fill:#FF4C97;}
	.st9{fill:#BA0445;}
	.st10{fill:#FF529E;}
	.st11{fill:#ED2B7D;}
	.st12{fill:#0058C0;}
	.st13{fill:#0043AB;}
	.st14{fill:#FFFFFF;}
	.st15{fill:#0042AF;}
	.st16{fill:#003565;}
	.st17{fill:#FF897B;}
	.st18{fill:#FF695A;}
	.st19{fill:#4F0000;}
	.st20{fill:#FF5A4E;}
	.st21{fill:#FF584D;}
	.st22{fill:#FF5349;}
	.st23{fill:#FFFEFF;}
	.st24{fill:#E6E6E6;}
	.st25{fill:#FF605C;}
	.st26{fill:#AF4945;}
	.st27{opacity:0.48;fill:#F2F2F2;}
	.st28{fill:#95C101;}
	.st29{fill:#59AC00;}
	.st30{fill:#70A400;}
	.st31{fill:#529D00;}
	.st32{fill:#E75EDE;}
	.st33{fill:none;}
	.st34{fill:#FFBCF4;}
	.st35{fill:#000007;}
	.st36{fill:#DB54C0;}
	.st37{fill:#BD40A9;}
	.st38{fill:#9C1426;}
	.st39{fill:#F77136;}
	.st40{fill:#E658D6;}
	.st41{fill:#E751D0;}
	.st42{fill:#FF475B;}
	.st43{fill:#CC163F;}
	.st44{fill:#FEC914;}
	.st45{fill:#9E5E0A;}
	.st46{fill:#040008;}
	.st47{fill:#DC1B43;}
	.st48{fill:#AB0328;}
	.st49{fill:#8E0E25;}
	.st50{fill:#FB2D42;}
	.st51{fill:#FFC000;}
	.st52{fill:#F40560;}
	.st53{fill:#FF719F;}
	.st54{fill:#F7E700;}
	.st55{fill:#F9539E;}
	.st56{fill:#FDE900;}
	.st57{fill:#00B681;}
	.st58{fill:#00EDC6;}
	.st59{fill:#710227;}
	.st60{fill:#C5075D;}
	.st61{fill:#FAC300;}
	.st62{fill:#00F5C7;}
	.st63{fill:#00725B;}
	.st64{fill:#8CFFF5;}
	.st65{fill:#A0FFF5;}
	.st66{fill:#73D29B;}
	.st67{fill:#7E4CD2;}
	.st68{fill:#4D299A;}
	.st69{fill:#562CA0;}
	.st70{fill:#41178A;}
	.st71{fill:#330C73;}
	.st72{fill:#B991FB;}
	.st73{fill:#3F0A58;}
	.st74{fill:#FBB03B;}
	.st75{fill:#E78300;}
	.st76{fill:#D66F00;}
	.st77{fill:#D66300;}
	.st78{fill:#F98F10;}
</style>
<path class="st17" d="M204.8,0c0,0,84,129.5,16.6,264.2c0,0,147.9,15.7,380.1-50.3s347.1-86.6,380.4-78.9
	c33.2,7.7,208.2,82.5,239.3,99.2c0,0,104,8.4,141.4,21.5c37.4,13.1,58.9,10.8,61.9,14.3c3,3.6-0.9,46.6-28.7,108.9
	s-52.2,85.3-67.8,88.4c-15.7,3.1-28.4,0.4-35.7-12.1c0,0-28.7,29-52.9-6.5c0,0-30.1,23-48.7-12.5c0,0-29.6,19.3-40.5-20.2
	c0,0-13,9.7-28.9,6.4c-3.7-2.8-9.1-4.4-14.8-4.4c0,0-119.6,102.3-341.1,91c0,0-55.7,147.5-209,166.4c0,0,39.3-136.9,44.8-184.8
	c0,0-329.4-64.6-434.4-174.8c0,0-86.6,19.5-166.8-41.1C0,274.8,193.9,138.1,204.8,0z"/>
<g>
	<path class="st18" d="M822.4,156.2C794.8,128.9,643.9-6.7,426.2,66.4c0,0,111.4,45.1,138,157.5c12.2-3.1,24.6-6.5,37.3-10.1
		C692.4,188,765.3,169.2,822.4,156.2z"/>
</g>
<path class="st19" d="M983.4,283c0,0-2.9-53.5,37-59.6c33.6-5.1,50.8,20.5,55.5,28.8c0.8,1.5,2.5,2.2,4.1,1.8l0,0
	c2.4-0.6,3.6-3.3,2.4-5.4c-5.5-9.7-21.6-32.6-52.5-33.1c-40.4-0.7-49.7,38-49.7,38s-9.6,5.5-22.9,7c8.7,4,18.9,2.9,19.2,4.3
	c0.2,0.9-3.5,3-14.3,7c0,0,15.5,3.2,15.4,5.1c0,1.1-13.4,6.2-13.4,6.2S972,288.5,983.4,283z"/>
<path class="st20" d="M945.8,260.3c3.5,1.1-1.6,4.7-7.6,4c-3.8-0.4-37-7.4-45.8-9.6c-8.1-2.1-0.5-6.6,10.3-4.6
	C913.5,252,929.4,255.2,945.8,260.3z"/>
<path class="st20" d="M936.3,282.9c-11.9,2-31.7,4.5-42.2,5.5c-5.2,0.5-12.2-5.1-2.1-6.4c10-1.3,37.5-4.9,42.8-5.2
	S948.9,280.7,936.3,282.9z"/>
<path class="st20" d="M940,295.6c0,0-27.8,14.9-35.5,20s-9.5,11.7,0,6.9c9.5-4.8,29.3-16.2,36.9-20.8
	C948.2,297.5,947.9,291.2,940,295.6z"/>
<path class="st21" d="M1076.2,419.6c0,0,0.9-33.4,5.1-36.5c4.2-3.2,32.8,4.2,37.3,5.3c0,0-31.8-19.8-44.6-13.5
	C1064.1,379.7,1076.2,419.6,1076.2,419.6z"/>
<path class="st22" d="M863.3,356.1c0,0-21.1,65.5,27.9,106.7C891.2,462.8,818.8,437.5,863.3,356.1z"/>
<path class="st22" d="M837.8,356.6c0,0-19.5,63.9,15.9,110.3C853.7,466.9,789.9,427.3,837.8,356.6z"/>
<path class="st22" d="M803.9,364c0,0-15.8,64.4,21.1,105.4C825.1,469.5,761.5,433.5,803.9,364z"/>
<path class="st23" d="M250.7,375.4c58.5,43.9,185.6,130.6,337,182.5c6.4-26.7,11.8-51.7,13.6-67.3
	C601.2,490.7,388.7,448.9,250.7,375.4z"/>
<path class="st23" d="M1223.8,501.2c0,0-6.1-27.1-34.7-19.7c0,0-0.1-26.1-33-18.7c0,0,0.9-22.1-25.5-21c0,0,0.3-12.7-9.3-19.6
	c-3.5-2.5-8.2-4.2-14.8-4.3c0,0-119.6,102.3-341.1,91c0,0-15.3,40.4-51.7,81.6c10.8,1.9,21.7,3.5,32.6,4.8
	c279.2,33.9,474.6-48.8,514.6-78.4C1260.9,517,1259.2,496,1223.8,501.2z"/>
<g>
	<path class="st24" d="M1124.8,451.1c0.3,0.2,0.7,0.3,1.1,0.2c0.3-0.1,0.6-0.3,0.8-0.6c2.4-3.7,5-6.9,6.6-8.8c-0.9,0-1.8,0-2.7,0
		c0,0,0-0.4,0-1.1c-1.7,2-3.9,4.9-6.2,8.3C1124,449.9,1124.2,450.7,1124.8,451.1z"/>
	<path class="st24" d="M1150.1,470.6c0.3,0.2,0.7,0.3,1.1,0.2c0.3-0.1,0.6-0.3,0.8-0.6c2-3.1,4-5.7,5.6-7.7c-0.5,0.1-1,0.2-1.5,0.3
		c0,0,0-1-0.2-2.6c-1.7,2-4,4.9-6.3,8.5C1149.2,469.4,1149.4,470.2,1150.1,470.6z"/>
	<path class="st24" d="M1182.3,490.3c0.3,0.2,0.7,0.3,1.1,0.2c0.3-0.1,0.6-0.3,0.8-0.6c2.4-3.7,4.9-6.8,6.5-8.7
		c-0.5,0.1-1.1,0.2-1.6,0.4c0,0,0-1-0.2-2.5c-1.7,1.9-4.4,5.3-7,9.3C1181.4,489.1,1181.6,489.9,1182.3,490.3z"/>
	<path class="st24" d="M1215.3,507.5c0.4,0.4,0.9,0.5,1.3,0.4c0.2-0.1,0.5-0.2,0.6-0.4c2.8-2.7,5.5-4.9,7.5-6.4
		c-0.3,0-0.6,0.1-1,0.1c0,0-0.2-0.9-0.7-2.3c-2.1,1.6-4.9,3.8-7.8,6.6C1214.8,506.1,1214.8,506.9,1215.3,507.5z"/>
</g>
<g>
	<path class="st25" d="M1153.7,405.8c-1.5-0.4-3,0.4-3.4,1.9c-1.3,4.6-3.1,8.6-4,10.7c2.5-1.3,4-2.4,4-2.4c0.4,1.5,0.9,2.9,1.3,4.2
		c1.1-2.4,2.7-6.4,4-10.9C1156,407.8,1155.2,406.2,1153.7,405.8z"/>
	<path class="st25" d="M1196.9,423.7c-1.4-0.6-3,0.2-3.6,1.6c-2.6,6.6-5.8,11.8-5.8,11.9c-0.2,0.3-0.3,0.6-0.3,0.9
		c2.3-1,3.7-1.9,3.7-1.9c0.6,1.1,1.2,2.2,1.8,3.2c1-1.7,3.6-6.3,5.9-12.1C1199,425.9,1198.3,424.3,1196.9,423.7z"/>
	<path class="st25" d="M1244.9,436.4c-1.4-0.6-3,0.2-3.6,1.6c-2.6,6.6-5.8,11.8-5.8,11.9c-0.3,0.5-0.4,1-0.4,1.5
		c2.7-1.5,4.4-2.7,4.4-2.7c0.6,0.8,1.2,1.6,1.7,2.4c1.2-2.2,3.4-6.2,5.3-11.1C1247,438.6,1246.3,437,1244.9,436.4z"/>
	<path class="st25" d="M1298.6,443.4c-1.4-0.6-3,0.2-3.6,1.6c-2.6,6.6-5.8,11.8-5.8,11.9c-0.3,0.4-0.4,0.9-0.4,1.3
		c2.2-1.7,3.5-3,3.5-3c0.7,1.2,1.5,2.3,2.3,3.4c1.2-2,3.5-6.4,5.6-11.6C1300.8,445.6,1300.1,444,1298.6,443.4z"/>
</g>
<ellipse transform="matrix(0.1694 -0.9856 0.9856 0.1694 840.8851 1603.7789)" class="st26" cx="1371.9" cy="303" rx="15.6" ry="13"/>
<path class="st27" d="M1212.8,198.8c-9.5,2.3-15.2,12.6-12.8,22.9s12.3,16.9,21.8,14.6c9.5-2.3,15.3-12.6,12.8-22.9
	S1222.3,196.5,1212.8,198.8z"/>
<path class="st27" d="M1148.1,217.3c-11.7,2.8-18.7,15.5-15.7,28.1s15.1,20.7,26.8,17.9c11.7-2.8,18.7-15.5,15.7-28.1
	C1171.8,222.5,1159.8,214.5,1148.1,217.3z"/>
<path class="st14" d="M1211.8,194.5c-8.2,2-14.2,8.6-16.1,16.7c-9.9-3.6-18,3.3-22.3,9.6c-6.7-7.5-16.7-11.2-26.6-8.8
	c-14.7,3.5-23.5,19.2-19.8,34.8c3.8,15.7,18.8,25.5,33.5,22c14.7-3.5,23.5-19.2,19.8-34.8c-0.8-3.5-2.2-6.6-4.1-9.4
	c2.5-4,9.4-13,18.8-8.8c-0.1,2.3,0.1,4.7,0.7,7.1c3.1,12.7,15.2,20.7,27.1,17.8c11.9-2.9,19.1-15.5,16-28.3
	S1223.7,191.6,1211.8,194.5z M1159.2,263.4c-11.7,2.8-23.7-5.2-26.8-17.9s4-25.3,15.7-28.1c11.7-2.8,23.7,5.2,26.8,17.9
	C1177.9,247.9,1170.9,260.6,1159.2,263.4z M1221.8,236.3c-9.5,2.3-19.3-4.2-21.8-14.6s3.2-20.6,12.8-22.9
	c9.5-2.3,19.3,4.2,21.8,14.6S1231.4,234,1221.8,236.3z"/>
</svg>
