<?xml version="1.0" encoding="utf-8"?>
<!-- Generator: Adobe Illustrator 21.1.0, SVG Export Plug-In . SVG Version: 6.00 Build 0)  -->
<svg version="1.1" id="Capa_1" xmlns="http://www.w3.org/2000/svg" xmlns:xlink="http://www.w3.org/1999/xlink" x="0px" y="0px"
	 viewBox="0 0 1459.3 542.6" style="enable-background:new 0 0 1459.3 542.6;" xml:space="preserve">
<style type="text/css">
	.st0{fill:#FFCE00;}
	.st1{fill:#FFFDFF;}
	.st2{fill:#FFBF00;}
	.st3{fill:#FFFDEF;}
	.st4{fill:#964000;}
	.st5{fill:#FFFCF8;}
	.st6{fill:#FF60A8;}
	.st7{fill:#FF2391;}
	.st8{fill:#FF4C97;}
	.st9{fill:#BA0445;}
	.st10{fill:#FF529E;}
	.st11{fill:#ED2B7D;}
	.st12{fill:#0058C0;}
	.st13{fill:#0043AB;}
	.st14{fill:#FFFFFF;}
	.st15{fill:#0042AF;}
	.st16{fill:#003565;}
	.st17{fill:#FF897B;}
	.st18{fill:#FF695A;}
	.st19{fill:#4F0000;}
	.st20{fill:#FF5A4E;}
	.st21{fill:#FF584D;}
	.st22{fill:#FF5349;}
	.st23{fill:#FFFEFF;}
	.st24{fill:#E6E6E6;}
	.st25{fill:#FF605C;}
	.st26{fill:#AF4945;}
	.st27{opacity:0.48;fill:#F2F2F2;}
	.st28{fill:#95C101;}
	.st29{fill:#59AC00;}
	.st30{fill:#70A400;}
	.st31{fill:#529D00;}
	.st32{fill:#E75EDE;}
	.st33{fill:none;}
	.st34{fill:#FFBCF4;}
	.st35{fill:#000007;}
	.st36{fill:#DB54C0;}
	.st37{fill:#BD40A9;}
	.st38{fill:#9C1426;}
	.st39{fill:#F77136;}
	.st40{fill:#E658D6;}
	.st41{fill:#E751D0;}
	.st42{fill:#FF475B;}
	.st43{fill:#CC163F;}
	.st44{fill:#FEC914;}
	.st45{fill:#9E5E0A;}
	.st46{fill:#040008;}
	.st47{fill:#DC1B43;}
	.st48{fill:#AB0328;}
	.st49{fill:#8E0E25;}
	.st50{fill:#FB2D42;}
	.st51{fill:#FFC000;}
	.st52{fill:#F40560;}
	.st53{fill:#FF719F;}
	.st54{fill:#F7E700;}
	.st55{fill:#F9539E;}
	.st56{fill:#FDE900;}
	.st57{fill:#00B681;}
	.st58{fill:#00EDC6;}
	.st59{fill:#710227;}
	.st60{fill:#C5075D;}
	.st61{fill:#FAC300;}
	.st62{fill:#00F5C7;}
	.st63{fill:#00725B;}
	.st64{fill:#8CFFF5;}
	.st65{fill:#A0FFF5;}
	.st66{fill:#73D29B;}
	.st67{fill:#7E4CD2;}
	.st68{fill:#4D299A;}
	.st69{fill:#562CA0;}
	.st70{fill:#41178A;}
	.st71{fill:#330C73;}
	.st72{fill:#B991FB;}
	.st73{fill:#3F0A58;}
	.st74{fill:#FBB03B;}
	.st75{fill:#E78300;}
	.st76{fill:#D66F00;}
	.st77{fill:#D66300;}
	.st78{fill:#F98F10;}
</style>
<path class="st28" d="M273.3,288.8c0,0,138.4,8.1,280.4-64.9s338-159.3,352.5-163.1s252.2,12.5,392,153.1c0,0,120.3,15.8,141,17.4
	c20.7,1.6,22.1,1,18.5,12.1s-42.9,118.4-123.3,180.5c0,0-19.9,5.9-42.3-10.1c0,0-29.6,14.7-47-12.7c0,0-35.5,12.5-48.2-16.5
	c0,0-31.1,1.2-40.9-18.9c0,0-31.9,6.5-33.3-11.7c0,0-1.4-4.7-6.1,2.7s-114.6,92.1-261.2,95.1c0,0-131.9,95-330.1,90.8
	c0,0,101.7-74.8,118.9-92.2c0,0-230.2-33.2-351.6-89.6c0,0-11.1,102.5-113.2,140.8c0,0-9.8-76-5.3-124.6c0,0-76.3-64.7-113.8-111.3
	C20,215.3,0,195.3,0,195.3S173,170,273.3,288.8z"/>
<g>
	<path class="st29" d="M483.1,39.2c0,0,152.9,47.5,165.6,137.7C734.1,135.7,820.9,96.6,869,76C841,54.4,680.2-58.4,483.1,39.2z"/>
</g>
<g>
	<path class="st1" d="M1292.1,413.7c0,0-29.6,14.7-47-12.7c0,0-35.5,12.5-48.2-16.5c0,0-31.1,1.2-40.9-18.9c0,0-31.9,6.5-33.3-11.7
		c0,0-1.4-4.7-6.1,2.7s-114.6,92.1-261.2,95.1c0,0-48.9,35.2-132,61.8c19,1.9,38.5,3.3,58.7,4.2c289,12.1,442.6-11.3,546.8-92.9
		C1321.6,425.4,1307.5,424.7,1292.1,413.7z"/>
	<path class="st1" d="M323,373.6c42.7,30,134.3,84.9,270.3,117.9c22.6-17.3,43.8-34.1,50.9-41.2C644.2,450.3,448.7,422.1,323,373.6z
		"/>
</g>
<g>
	<path class="st24" d="M1185.1,395.2c-3.7,5.5-1.3,7,2.9,3.8c3.9-2.9,6.9-9.3,7.9-14.4c-1.4,0-4.2-0.1-7.6-0.5
		C1188.3,386.4,1187.9,390.9,1185.1,395.2z"/>
	<path class="st24" d="M1143.6,377.4c-3.6,5.6-1.3,7,2.6,3.8c3.9-3.1,6.9-9.9,7.7-15.2c-1.7,0.3-4.3,0.6-7.3,0.7
		C1146.7,369.1,1146.2,373.3,1143.6,377.4z"/>
	<path class="st24" d="M1230.8,413.7c-3.1,4.6-0.5,6.3,3.1,3.2c5.8-5,8.9-11,9.3-15.3c-1.8,0.5-4.7,1.2-8.3,1.7
		C1234.7,405.6,1233.7,409.3,1230.8,413.7z"/>
	<path class="st24" d="M1281.9,427.9c-2.2,4.7,0.7,5.5,3.7,2.1c4.1-4.7,5.2-11.3,4.6-15.5c-1.7,0.6-4.3,1.5-7.4,2.2
		C1283.1,419.2,1283.6,424.2,1281.9,427.9z"/>
</g>
<g>
	<path class="st30" d="M1295.5,403.9c-1.7,4.4-4.2,8.4-5.7,10.8c1.5-0.6,2.3-1,2.3-1c1.1,0.8,2.1,1.4,3.2,2.1
		c1.9-3.4,3.4-7.2,3.9-10.6C1300.1,399.8,1297.9,397.6,1295.5,403.9z"/>
	<path class="st30" d="M1249.8,391.5c-1.5,3.8-3.5,7.3-5.1,9.7c0.3-0.1,0.4-0.1,0.4-0.1c1,1.6,2,3,3.1,4.3c2.6-3.8,4.6-8.5,5.2-12.6
		C1254.3,387.3,1252.2,385.2,1249.8,391.5z"/>
	<path class="st30" d="M1201.9,375.7c-3.4,4-7.5,7.2-9.6,8.8c2.9,0.2,4.7,0.1,4.7,0.1c0.3,0.7,0.6,1.4,1,2c2.9-2.6,5.4-5.6,7-8.6
		C1207.6,373.1,1206.3,370.4,1201.9,375.7z"/>
	<path class="st30" d="M1161.7,355.6c-2.2,4.4-5.2,8.2-7,10.4c0.9-0.1,1.4-0.2,1.4-0.2c0.7,1.4,1.5,2.7,2.4,3.9
		c3.1-3.6,5.7-8.2,6.8-12.4C1166.7,351.8,1164.8,349.5,1161.7,355.6z"/>
</g>
<path class="st14" d="M1268.1,302.5c0,0-13.2,25.6,6.6,31.7c19.7,6.1,33.6,2.2,60-19.6c26.4-21.8,69.3-48.8,90.8-4.6
	c0,0,21.5-15.7,26.3-1.7s-10.1,44.5-7.9,46.8c2.1,2.3,7.6-2.8,8.7-9.5c0,0-0.5,25.2-17,28.6c-16.5,3.5-15.9-15.3-17.5-20.7
	c-1.6-5.5-7.7-6.8-14.4-4.2c0,0-12.1-15.5-33.4-11.2c-21.3,4.3-62.9,26.7-89,22.7C1255.2,356.7,1229.4,332.7,1268.1,302.5z"/>
<path class="st30" d="M999.7,232.7c3.1-0.1,0.1,3.9-4.8,5c-3.1,0.7-30.8,4.5-38.3,5.2c-6.9,0.7-2.3-4.8,6.7-6.2
	C972.3,235.3,985.6,233.4,999.7,232.7z"/>
<path class="st30" d="M1003.2,254.2c-9.3,3.5-24.8,8.7-33.1,11.2c-4.1,1.2-10.7-1.9-2.8-4.6c7.9-2.7,29.5-10,33.7-11
	S1013,250.5,1003.2,254.2z"/>
<path class="st30" d="M1011.1,262.6c0,0-19.9,16-25.2,21.2c-5.3,5.2-5.7,10.6,1.2,5.3c6.9-5.3,20.9-17.2,26.3-22.1
	C1018,262.7,1016.7,257.9,1011.1,262.6z"/>
<path class="st30" d="M1090.8,345.8c0,0,5.9-21.1,9-22.5c4.6-2,21.7,3,26.2,4.1c0,0-20.2-11.2-29.3-9.3
	C1089.8,319.5,1090.8,345.8,1090.8,345.8z"/>
<path class="st31" d="M933.9,287.6c0,0-7.9,56.1,52.6,103.9C986.5,391.5,907.6,359.1,933.9,287.6z"/>
<path class="st31" d="M904.7,292.8c0,0-10.4,68.5,41.3,110.4C946.1,403.2,871.2,371.8,904.7,292.8z"/>
<path class="st31" d="M871.8,307.1c0,0-9.9,63.6,38.1,101.9C909.8,409.1,843.4,383.7,871.8,307.1z"/>
<path class="st14" d="M1109.2,153.1c-28.5-0.1-66.7,9.9-100.2,30.9c-30.9,19.3-6.8,44,23.5,28.3c26.1-13.5,60.2-28.3,86.3-33.8
	C1138.1,174.3,1146.2,153.2,1109.2,153.1z"/>
<g>
	<path class="st14" d="M1054.5,221.9c-1-4.6-1.1-9.2-0.5-13.7c-7.9,3.6-15.6,7.4-22.6,11c-2.6,1.3-5.1,2.3-7.5,3.1
		c0.2,1.1,0.3,2.3,0.5,3.4c5.8,27.8,32.4,46.2,59.5,41.1c9-1.7,16.9-5.9,23.2-11.6l0,0C1082.9,259.9,1059.3,245,1054.5,221.9z"/>
	<path class="st24" d="M1054,208.3c0.3-2.5,0.9-4.9,1.6-7.2c-8.1,3.7-15.9,7.5-23.1,11.2c-3.2,1.6-6.3,2.8-9.3,3.6
		c0,2.2,0.3,4.3,0.6,6.5c2.4-0.8,4.9-1.8,7.5-3.1C1038.4,215.7,1046.1,211.9,1054,208.3z"/>
	<path d="M1122.3,207.2c-1.6-7.7-4.9-14.7-9.3-20.7c-1.4-1.9-3-3.8-4.7-5.5c-16.6,4.6-35.3,12-52.7,20c-0.8,2.3-1.3,4.8-1.6,7.2
		c-0.6,4.4-0.5,9,0.5,13.7c4.8,23,28.4,38,52.6,33.4l0,0C1119.8,243.8,1126.2,225.8,1122.3,207.2z"/>
</g>
<path class="st30" d="M1427.8,266.6c-1.2,6.8-6.1,11.7-11.1,10.9c-5-0.8-8.1-6.9-6.9-13.7c1.2-6.8,6.1-11.7,11.1-10.9
	C1425.9,253.7,1429,259.8,1427.8,266.6z"/>
</svg>
