<?xml version="1.0" encoding="utf-8"?>
<!-- Generator: Adobe Illustrator 21.1.0, SVG Export Plug-In . SVG Version: 6.00 Build 0)  -->
<svg version="1.1" id="Capa_1" xmlns="http://www.w3.org/2000/svg" xmlns:xlink="http://www.w3.org/1999/xlink" x="0px" y="0px"
	 viewBox="0 0 1767.6 809.7" style="enable-background:new 0 0 1767.6 809.7;" xml:space="preserve">
<style type="text/css">
	.st0{fill:#FFCE00;}
	.st1{fill:#FFFDFF;}
	.st2{fill:#FFBF00;}
	.st3{fill:#FFFDEF;}
	.st4{fill:#964000;}
	.st5{fill:#FFFCF8;}
	.st6{fill:#FF60A8;}
	.st7{fill:#FF2391;}
	.st8{fill:#FF4C97;}
	.st9{fill:#BA0445;}
	.st10{fill:#FF529E;}
	.st11{fill:#ED2B7D;}
	.st12{fill:#0058C0;}
	.st13{fill:#0043AB;}
	.st14{fill:#FFFFFF;}
	.st15{fill:#0042AF;}
	.st16{fill:#003565;}
	.st17{fill:#FF897B;}
	.st18{fill:#FF695A;}
	.st19{fill:#4F0000;}
	.st20{fill:#FF5A4E;}
	.st21{fill:#FF584D;}
	.st22{fill:#FF5349;}
	.st23{fill:#FFFEFF;}
	.st24{fill:#E6E6E6;}
	.st25{fill:#FF605C;}
	.st26{fill:#AF4945;}
	.st27{opacity:0.48;fill:#F2F2F2;}
	.st28{fill:#95C101;}
	.st29{fill:#59AC00;}
	.st30{fill:#70A400;}
	.st31{fill:#529D00;}
	.st32{fill:#E75EDE;}
	.st33{fill:none;}
	.st34{fill:#FFBCF4;}
	.st35{fill:#000007;}
	.st36{fill:#DB54C0;}
	.st37{fill:#BD40A9;}
	.st38{fill:#9C1426;}
	.st39{fill:#F77136;}
	.st40{fill:#E658D6;}
	.st41{fill:#E751D0;}
	.st42{fill:#FF475B;}
	.st43{fill:#CC163F;}
	.st44{fill:#FEC914;}
	.st45{fill:#9E5E0A;}
	.st46{fill:#040008;}
	.st47{fill:#DC1B43;}
	.st48{fill:#AB0328;}
	.st49{fill:#8E0E25;}
	.st50{fill:#FB2D42;}
	.st51{fill:#FFC000;}
	.st52{fill:#F40560;}
	.st53{fill:#FF719F;}
	.st54{fill:#F7E700;}
	.st55{fill:#F9539E;}
	.st56{fill:#FDE900;}
	.st57{fill:#00B681;}
	.st58{fill:#00EDC6;}
	.st59{fill:#710227;}
	.st60{fill:#C5075D;}
	.st61{fill:#FAC300;}
	.st62{fill:#00F5C7;}
	.st63{fill:#00725B;}
	.st64{fill:#8CFFF5;}
	.st65{fill:#A0FFF5;}
	.st66{fill:#73D29B;}
	.st67{fill:#7E4CD2;}
	.st68{fill:#4D299A;}
	.st69{fill:#562CA0;}
	.st70{fill:#41178A;}
	.st71{fill:#330C73;}
	.st72{fill:#B991FB;}
	.st73{fill:#3F0A58;}
	.st74{fill:#FBB03B;}
	.st75{fill:#E78300;}
	.st76{fill:#D66F00;}
	.st77{fill:#D66300;}
	.st78{fill:#F98F10;}
</style>
<g>
	<path class="st5" d="M1043,685c0,0-15.7,29-51.4,59c254.4,46.4,445.1-7.6,445.1-7.6c-23.8-24.9-69.6-105.5-87.1-136.9
		c-1.1-0.6-2-1.1-2.7-1.6C1346.9,597.9,1236.4,717.4,1043,685z"/>
	<path class="st5" d="M251.3,408.3c74,44.3,210.1,121.1,437.3,234.7c33.3,16.6,66.3,31.1,98.9,43.6c6.7-22.8,13-43.3,17.5-55.8
		C804.9,630.8,377.2,466.3,251.3,408.3z"/>
</g>
<path class="st6" d="M146.6,0c0,0,110,133.5,97.4,308.4c0,0,155.1,39.7,395,28.9s515.9-83.8,654.7-32.5
	c131.7,48.7,321.1,126.3,321.1,126.3s131.7,5.4,147.9,10.8c16.2,5.4-10.8,66.7-37,102.8c-26.2,36.1-90.2,103.7-130.8,125.4
	c0,0-224.6-55.9-248-72.1c0,0-110.5,119.5-303.9,87c0,0-79.8,147.5-289.5,121.8c0,0,36.5-133.9,51.4-175.9
	c0,0-534.3-205.6-584.4-238.1c0,0-70.3,79.8-220.5,62.2l102.8-150.2C102.8,304.8,147,6.3,146.6,0z"/>
<g>
	<path class="st7" d="M1580,636.3c-24.2-9.2-63.2,6.1-74.1,10.9c48.5,12.9,89,23,89,23c0.1,0,0.2-0.1,0.2-0.1
		C1597.6,658.6,1597.3,642.8,1580,636.3z"/>
</g>
<g>
	<path class="st7" d="M1388,726.9c7.7,10.3,28.6,9.4,45.9,6.4c-10.1-11.5-23.3-31.1-36.6-52.4C1389.6,692.1,1377.9,713.4,1388,726.9
		z"/>
</g>
<g>
	<path class="st8" d="M1172.4,286.8c-33.9-53.6-163.6-221.6-457.7-220c0,0,124,119.2,136.2,250.2
		C967.2,302.2,1080.5,285.6,1172.4,286.8z"/>
</g>
<path class="st3" d="M1319,461.8c1.3-30,27.3-53.2,57.9-51.9c2.3,0.1,4.5,0.4,6.7,0.7c-9.8-10.2-22.9-16.8-37.7-17.4
	c-31.8-1.4-58.8,24.9-60.3,58.7c-1.5,33.8,23.1,62.4,54.9,63.8c4.6,0.2,9-0.2,13.3-1.1C1332.6,506.2,1318,485.4,1319,461.8z"/>
<path d="M1400.9,457c0.8-18.1-5.9-34.6-17.2-46.4c-2.2-0.4-4.4-0.6-6.7-0.7c-30.7-1.3-56.6,21.9-57.9,51.9
	c-1,23.7,13.6,44.4,34.9,52.8C1379.6,509.3,1399.6,486,1400.9,457z"/>
<g>
	<path class="st9" d="M1285.7,451.9c1.5-33.8,28.5-60.1,60.3-58.7c9.8,0.4,18.9,3.5,26.8,8.5c-2.5-7.3-9-26.7-9.8-34.4
		c0,0-9.1,15.6-11.2,25c0,0-21-20.6-26-31.1c0,0-1,22.7,2,31.1c0,0-29.8-11.5-35.2-18.3c0,0,4.4,21.6,14.5,30.1
		c0,0-28.4-6.8-32.8-12.2c0,0,3.7,16.9,15.9,26.7c0,0-22.3-3.7-27.4-6.8c0,0,7.4,17.6,20,25.4c0,0-16.6-0.7-22-2
		c0,0,13.1,15.6,24.9,22.8C1285.6,456.1,1285.6,454,1285.7,451.9z"/>
</g>
<path class="st10" d="M1171.8,544.5c0,0-16.2,61.6,15.1,100.4C1186.9,644.9,1131.7,613.6,1171.8,544.5z"/>
<path class="st10" d="M1148,533.2c0,0-29.4,63,1.2,107.7C1149.3,640.9,1091.4,601.3,1148,533.2z"/>
<path class="st10" d="M1121.3,520.6c0,0-38.5,71.5-9.2,119.2C1112.1,639.8,1056,592,1121.3,520.6z"/>
<ellipse transform="matrix(0.226 -0.9741 0.9741 0.226 784.3743 1997.2667)" class="st11" cx="1649" cy="505" rx="17.6" ry="14.4"/>
</svg>
