<?xml version="1.0" encoding="UTF-8" standalone="no"?>
<!-- Created with Inkscape (http://www.inkscape.org/) -->

<svg
   xmlns:dc="http://purl.org/dc/elements/1.1/"
   xmlns:cc="http://creativecommons.org/ns#"
   xmlns:rdf="http://www.w3.org/1999/02/22-rdf-syntax-ns#"
   xmlns:svg="http://www.w3.org/2000/svg"
   xmlns="http://www.w3.org/2000/svg"
   xmlns:sodipodi="http://sodipodi.sourceforge.net/DTD/sodipodi-0.dtd"
   xmlns:inkscape="http://www.inkscape.org/namespaces/inkscape"
   width="512"
   height="512"
   viewBox="0 0 135.46666 135.46667"
   version="1.1"
   id="svg4642"
   inkscape:version="0.92.3 (2405546, 2018-03-11)"
   sodipodi:docname="Coral_Green_01.svg">
  <defs
     id="defs4636">
    <inkscape:path-effect
       effect="bspline"
       id="path-effect5242"
       is_visible="true"
       weight="33.333333"
       steps="2"
       helper_size="0"
       apply_no_weight="true"
       apply_with_weight="true"
       only_selected="false" />
    <inkscape:path-effect
       effect="bspline"
       id="path-effect5238"
       is_visible="true"
       weight="33.333333"
       steps="2"
       helper_size="0"
       apply_no_weight="true"
       apply_with_weight="true"
       only_selected="false" />
  </defs>
  <sodipodi:namedview
     id="base"
     pagecolor="#ffffff"
     bordercolor="#666666"
     borderopacity="1.0"
     inkscape:pageopacity="0.0"
     inkscape:pageshadow="2"
     inkscape:zoom="0.98994949"
     inkscape:cx="223.79097"
     inkscape:cy="264.17381"
     inkscape:document-units="mm"
     inkscape:current-layer="layer1"
     showgrid="false"
     units="px"
     inkscape:pagecheckerboard="true"
     inkscape:window-width="2560"
     inkscape:window-height="1017"
     inkscape:window-x="1912"
     inkscape:window-y="-8"
     inkscape:window-maximized="1" />
  <metadata
     id="metadata4639">
    <rdf:RDF>
      <cc:Work
         rdf:about="">
        <dc:format>image/svg+xml</dc:format>
        <dc:type
           rdf:resource="http://purl.org/dc/dcmitype/StillImage" />
        <dc:title></dc:title>
      </cc:Work>
    </rdf:RDF>
  </metadata>
  <g
     inkscape:label="Layer 1"
     inkscape:groupmode="layer"
     id="layer1"
     transform="translate(0,-161.53332)">
    <path
       style="fill:#ccff00;stroke:none;stroke-width:0.26458332px;stroke-linecap:butt;stroke-linejoin:miter;stroke-opacity:1"
       d="m 39.288666,274.86087 c 0.267294,-2.2718 0.534563,-3.42997 0.579074,-4.4098 0.04451,-0.97983 -0.133715,-1.78185 -0.572941,-3.05805 -0.439225,-1.2762 -1.164403,-3.08914 -1.081841,-5.03331 0.08256,-1.94418 0.986706,-4.11412 0.562119,-6.4445 -0.424587,-2.33037 -2.248281,-4.97473 -2.203605,-7.20206 0.04468,-2.22733 1.9156,-4.09825 2.316423,-6.72612 0.400824,-2.62786 -0.668405,-6.01375 -0.420812,-8.18433 0.247594,-2.17058 1.890927,-3.17483 1.801845,-4.64454 -0.08908,-1.4697 -1.871219,-3.43006 -1.895689,-5.18982 -0.02447,-1.75976 1.806555,-3.40769 3.187208,-3.18505 1.380652,0.22263 2.360791,2.27201 2.405464,3.78648 0.04467,1.51448 -0.846179,2.49442 -0.667975,4.36577 0.178205,1.87135 1.425113,4.63236 1.336118,7.08229 -0.08899,2.44992 -1.514368,4.58798 -1.425291,7.3501 0.08908,2.76213 1.692464,6.14706 1.800161,8.66411 0.107698,2.51705 -1.35466,4.2536 -1.399235,6.16932 -0.04457,1.91572 1.291543,4.05351 1.218299,6.12576 -0.07324,2.07224 -1.619194,4.16382 -1.841967,5.9013 -0.222773,1.73748 0.846149,3.16271 1.737126,2.80618 0.890978,-0.35652 1.603675,-2.49461 2.049074,-4.45444 0.445398,-1.95983 0.623604,-3.74189 1.603588,-5.21174 0.979984,-1.46984 2.762065,-2.6282 3.073801,-4.36521 0.311736,-1.737 -0.846629,-4.05373 -0.534683,-5.88011 0.311947,-1.82637 2.093822,-3.16277 1.737544,-4.76611 -0.356277,-1.60333 -2.851207,-3.47453 -3.029247,-5.30102 -0.17804,-1.82649 1.960083,-3.60826 1.915537,-5.74614 -0.04455,-2.13787 -2.272092,-4.63272 -2.227391,-6.54823 0.0447,-1.91551 2.361053,-3.25187 2.093817,-5.38974 -0.267237,-2.13787 -3.118496,-5.07823 -3.385621,-7.48377 -0.267124,-2.40554 2.049216,-4.27643 2.360967,-6.68159 0.311751,-2.40517 -1.381169,-5.34551 -1.381019,-7.39462 1.5e-4,-2.04911 1.69291,-3.20731 3.251703,-3.0737 1.558793,0.13361 2.984484,1.5593 3.118208,3.2964 0.133724,1.73709 -1.024445,3.78616 -0.935365,5.9246 0.08908,2.13845 1.425224,4.36536 1.648007,6.8598 0.222783,2.49445 -0.668084,5.25614 0.02237,7.86402 0.690454,2.60788 2.873028,4.96506 2.985516,7.12539 0.112488,2.16033 -1.983095,4.1648 -2.116742,5.99138 -0.133648,1.82659 1.647912,3.51907 1.781669,5.21163 0.133757,1.69256 -1.380774,3.38528 -1.247114,5.07826 0.133661,1.69299 1.915166,3.38542 1.826201,5.30071 -0.08897,1.91529 -2.048947,4.05345 -2.182614,6.23641 -0.133667,2.18296 1.558823,4.40992 1.024403,6.99344 -0.53442,2.58351 -3.296159,5.52343 -5.389898,8.7308 -2.093739,3.20738 -3.519044,6.68156 -3.608148,9.0872 -0.0891,2.40564 1.158043,3.74186 1.024529,4.3655 -0.133513,0.62364 -1.648027,0.53455 -5.212086,0.2227 -3.564059,-0.31185 -9.175799,-0.84631 -10.601138,-1.73731 -1.42534,-0.89101 1.336331,-2.13822 2.850694,-4.45443 1.514363,-2.31621 1.781664,-5.70201 2.048957,-7.97381 z"
       id="path5236"
       inkscape:connector-curvature="0"
       inkscape:path-effect="#path-effect5238"
       inkscape:original-d="m 39.28862,273.74754 c 0.267534,-1.15843 0.534804,-2.3166 0.801808,-3.47451 -0.177867,-0.80186 -0.356094,-1.60388 -0.534539,-2.40542 -0.623211,-1.78163 -1.425172,-3.56386 -2.138156,-5.34539 0.802012,-2.13826 1.782062,-4.27658 2.672695,-6.41447 -1.781266,-2.49441 -3.563328,-5.16748 -5.34539,-7.75082 1.871111,-1.87111 3.742038,-3.74203 5.61266,-5.61266 -1.068662,-3.3852 -2.137891,-6.77109 -3.207234,-10.15624 1.603804,-0.89112 3.207499,-1.96024 4.810851,-2.93996 -1.781187,-1.95987 -3.563329,-3.92022 -5.34539,-5.87993 1.69296,-1.60388 3.563858,-3.2075 5.34539,-4.81086 0.9801,2.04849 1.960241,4.09787 2.939964,6.1472 -0.890682,0.97978 -1.781531,1.95972 -2.672694,2.93997 1.247874,2.7623 2.494781,5.52331 3.741772,8.28535 -1.425233,2.13799 -2.850609,4.27605 -4.276311,6.41447 1.60411,3.38564 3.207498,6.77057 4.810852,10.15625 -1.336127,1.69249 -2.850611,3.38514 -4.276313,5.07811 1.336837,2.13826 2.672959,4.27605 4.009041,6.41448 -1.42522,2.04887 -3.028789,4.09786 -4.54358,6.14719 1.069498,1.42538 2.13842,2.85061 3.207233,4.27631 0.713005,-2.13848 1.425702,-4.27657 2.138157,-6.41446 0.178419,-1.7818 0.356623,-3.56386 0.53454,-5.34539 1.781773,-1.15825 3.563858,-2.3166 5.34539,-3.47451 -1.157705,-2.3162 -2.316072,-4.63293 -3.474503,-6.94901 1.781979,-1.33655 3.563858,-2.67295 5.34539,-4.00904 -2.493838,-1.87084 -4.988766,-3.74204 -7.483546,-5.61266 2.138455,-1.78209 4.276577,-3.56386 6.414468,-5.34539 -2.226683,-2.49444 -4.454228,-4.98929 -6.681739,-7.48354 2.316585,-1.33661 4.632936,-2.67297 6.949008,-4.00905 -2.850226,-2.93983 -5.701485,-5.88019 -8.552624,-8.81989 2.316596,-1.87115 4.632936,-3.74204 6.949006,-5.61266 -1.69223,-2.93986 -3.385148,-5.8802 -5.078119,-8.8199 1.692921,-1.15839 3.385677,-2.3166 5.078119,-3.4745 1.425448,1.42492 2.851139,2.85061 4.276312,4.27631 -1.157901,2.0488 -2.31607,4.09787 -3.474503,6.1472 1.336818,2.22732 2.672961,4.45423 4.009043,6.68174 -0.890664,2.76162 -1.781532,5.52331 -2.672696,8.28536 2.227768,2.49453 4.454758,4.81058 6.68174,7.21627 -1.959721,1.95972 -4.09787,3.91969 -6.1472,5.87993 1.782297,1.69267 3.563858,3.38515 5.34539,5.07812 -1.514258,1.69244 -3.028791,3.38515 -4.543581,5.07812 1.782353,1.69272 3.563858,3.38515 5.345391,5.07812 -1.959706,2.13789 -3.919689,4.27605 -5.879931,6.41447 1.693191,2.22727 3.38568,4.45423 5.078121,6.68174 -2.76157,2.93975 -5.523306,5.87967 -8.285355,8.8199 -1.425305,3.47456 -2.85061,6.94874 -4.276312,10.42351 1.247637,1.3362 2.49478,2.67243 3.741774,4.00904 -1.514274,-0.0894 -3.028791,-0.17844 -4.543583,-0.26727 -5.613315,-0.53489 -11.225055,-1.06934 -16.83798,-1.60362 2.762166,-1.24757 5.523835,-2.49478 8.285355,-3.74177 0.267504,-3.38529 0.534804,-6.77109 0.801809,-10.15624 z" />
    <path
       style="fill:#ccff00;stroke:none;stroke-width:0.26458332px;stroke-linecap:butt;stroke-linejoin:miter;stroke-opacity:1"
       d="m 61.160306,284.74998 c 0.311632,-2.36084 -1.291987,-5.74626 -1.336399,-8.19628 -0.04441,-2.45002 1.470163,-3.96459 1.470151,-5.70156 -1.3e-5,-1.73697 -1.5148,-3.69729 -1.202844,-5.43461 0.311957,-1.73733 2.450156,-3.25189 2.628303,-5.03344 0.178146,-1.78156 -1.603904,-3.83091 -1.336495,-5.83554 0.267409,-2.00462 2.58377,-3.96461 2.361086,-6.1025 -0.222684,-2.13788 -2.98481,-4.4545 -3.073752,-6.54823 -0.08894,-2.09374 2.494641,-3.96461 2.628244,-6.36978 0.133603,-2.40517 -2.182998,-5.34547 -2.138302,-7.66188 0.0447,-2.31642 2.450151,-4.00915 2.338787,-6.21312 -0.111364,-2.20397 -2.828903,-5.01209 -2.763916,-7.29707 0.06499,-2.28498 2.786192,-4.0406 2.608029,-6.62392 -0.178163,-2.58333 -3.296654,-5.96912 -3.519229,-8.59736 -0.222574,-2.62825 2.450133,-4.49915 2.450127,-6.85976 -5e-6,-2.36062 -2.673,-5.21182 -2.583752,-7.1273 0.08925,-1.91548 2.940132,-2.89547 4.276343,-2.36113 1.336212,0.53433 1.158012,2.58363 1.826272,4.45477 0.668261,1.87114 2.182577,3.56361 2.255742,5.32211 0.07317,1.7585 -1.231098,3.49752 -0.607374,5.90333 0.623724,2.40582 3.206898,5.43437 3.741574,7.70605 0.534676,2.27167 -0.979842,3.78619 -0.534301,5.52376 0.445541,1.73756 2.850548,3.6972 2.872506,5.63926 0.02196,1.94206 -2.427125,3.93761 -2.293456,5.94238 0.133669,2.00478 2.806048,4.0536 2.4053,6.32525 -0.400749,2.27165 -3.875302,4.7662 -3.810697,7.13982 0.06461,2.37362 3.587849,4.57565 3.588003,6.80275 1.54e-4,2.22711 -3.563511,4.4544 -3.356784,7.05963 0.206727,2.60523 4.069323,5.50217 4.42583,7.99656 0.356508,2.49439 -2.850761,4.54348 -3.207157,6.86003 -0.356396,2.31656 2.137881,4.89992 2.360719,7.52793 0.222838,2.628 -1.82623,5.3007 -1.157824,6.1471 0.668407,0.84639 4.053449,-0.13348 5.389654,-2.62787 1.336206,-2.49439 0.62342,-6.50381 1.380801,-8.86461 0.757381,-2.36081 2.984746,-3.07356 2.405733,-5.43412 -0.579013,-2.36056 -3.964911,-6.37018 -3.917075,-8.85333 0.04784,-2.48315 3.694274,-3.48593 4.228756,-5.44574 0.534482,-1.95982 -1.960252,-4.90004 -1.91555,-7.08281 0.0447,-2.18277 2.628327,-3.60822 2.539271,-5.34525 -0.08906,-1.73702 -2.851177,-3.78633 -2.895567,-5.6128 -0.04439,-1.82646 2.628263,-3.43005 2.761911,-5.03346 0.133649,-1.60341 -2.272053,-3.20722 -2.227351,-4.67732 0.0447,-1.47011 2.539157,-2.80642 2.182842,-5.07792 -0.356314,-2.27151 -3.563955,-5.47915 -4.276545,-8.01834 -0.71259,-2.5392 1.069209,-4.41009 2.316344,-6.3254 1.247135,-1.91531 1.959957,-3.87557 2.583466,-3.25215 0.623509,0.62342 1.158134,3.83117 2.548081,5.99623 1.389946,2.16505 3.777403,3.35878 3.822108,4.42774 0.0447,1.06896 -2.182646,2.04899 -2.093545,3.78649 0.0891,1.7375 2.494182,4.23166 2.806156,5.79068 0.311975,1.55902 -1.469821,2.18264 -1.024274,3.56379 0.445547,1.38116 3.117763,3.51893 3.028831,5.34517 -0.08893,1.82623 -2.939839,3.34078 -2.53885,5.16734 0.400989,1.82657 4.053268,3.96449 3.964339,5.92435 -0.08893,1.95986 -3.919878,3.7417 -4.231638,5.16728 -0.311759,1.42558 2.895204,2.49457 3.162585,4.5434 0.26738,2.04882 -2.405445,5.07803 -2.36088,7.70643 0.04457,2.62841 2.806093,4.85545 2.984407,7.12708 0.178315,2.27164 -2.227142,4.588 -2.449898,6.81549 -0.222755,2.22749 1.736998,4.36541 1.603503,6.4589 -0.133496,2.0935 -2.360729,4.14255 -3.786293,6.14716 -1.425565,2.00462 -2.049116,3.96435 -1.157993,5.34549 0.891122,1.38114 3.29616,2.18282 1.470079,2.8064 -1.826081,0.62358 -7.884589,1.06906 -13.987405,1.06907 -6.102817,10e-6 -12.249731,-0.44542 -14.209628,-1.33645 -1.959898,-0.89103 0.26726,-2.22732 0.578891,-4.58817 z"
       id="path5240"
       inkscape:connector-curvature="0"
       inkscape:path-effect="#path-effect5242"
       inkscape:original-d="m 63.075609,285.77467 c -1.603354,-3.38568 -3.206972,-6.7711 -4.810853,-10.15625 1.51474,-1.51474 3.029318,-3.02931 4.543581,-4.54358 -1.513998,-1.9599 -3.028788,-3.92021 -4.543581,-5.87993 2.138379,-1.51476 4.276577,-3.02932 6.414469,-4.54358 -1.781281,-2.04904 -3.563329,-4.0984 -5.345391,-6.1472 2.316578,-1.96022 4.632937,-3.92022 6.949009,-5.87993 -2.761181,-2.31631 -5.523307,-4.63293 -8.285355,-6.949 2.583891,-1.87117 5.167473,-3.74204 7.750815,-5.61266 -2.315803,-2.9399 -4.632407,-5.8802 -6.949009,-8.8199 2.405663,-1.69295 4.811117,-3.38568 7.216278,-5.07812 -2.672096,-2.67263 -5.345126,-5.52383 -8.018084,-8.28536 2.762043,-1.87114 5.523833,-3.56385 8.285355,-5.34539 -3.117535,-3.3853 -6.236025,-6.77109 -9.354434,-10.15624 2.672951,-1.87114 5.345655,-3.74204 8.018085,-5.61266 -2.672128,-2.85082 -5.345126,-5.70201 -8.018085,-8.55262 2.851129,-0.98025 5.702015,-1.96024 8.552625,-2.93997 -0.177895,2.04857 -0.356095,4.09787 -0.53454,6.1472 1.515004,1.69268 3.02932,3.38515 4.543583,5.07812 -1.425186,1.78155 -2.672432,3.56333 -4.009043,5.34539 2.584299,3.0293 5.167474,6.05785 7.750815,9.08717 -1.514274,1.51427 -3.028789,3.02879 -4.543581,4.54358 2.40611,1.96005 4.811114,3.91969 7.216277,5.87993 -2.405131,1.8706 -4.810587,3.91969 -7.216277,5.87993 2.673281,2.04904 5.345655,4.09787 8.018087,6.1472 -3.474191,2.49421 -6.948744,4.98876 -10.423512,7.48354 3.564165,2.31627 7.127452,4.45423 10.690781,6.68174 -3.563258,2.22694 -7.126923,4.45423 -10.690781,6.68174 4.009655,2.93995 7.84017,5.87967 11.759859,8.81989 -3.206936,2.04878 -6.414204,4.09787 -9.621703,6.1472 2.495018,2.58359 4.989296,5.16695 7.483546,7.75082 -2.048806,2.67243 -4.097869,5.34513 -6.147199,8.01808 3.38605,-0.98036 6.771092,-1.96024 10.156243,-2.93996 -0.712388,-4.00893 -1.425173,-8.01835 -2.138156,-12.02713 2.227392,-0.71294 4.454755,-1.4257 6.681737,-2.13815 -3.384669,-4.00874 -6.770563,-8.01836 -10.156243,-12.02713 3.474749,-0.98025 7.127452,-1.96024 10.690781,-2.93997 -2.494032,-2.93997 -4.988767,-5.88019 -7.483547,-8.81989 2.58385,-1.42569 5.167477,-2.85114 7.750818,-4.27632 -2.761184,-2.04908 -5.523307,-4.09839 -8.285355,-6.14719 2.673,-1.60391 5.345654,-3.2075 8.018084,-4.81085 -2.40488,-1.6037 -4.810586,-3.2075 -7.216275,-4.81086 2.494843,-1.33664 4.989295,-2.67296 7.483546,-4.00904 -3.206565,-3.20709 -6.414204,-6.41473 -9.621705,-9.6217 1.782064,-1.87115 3.563861,-3.74204 5.345393,-5.61266 0.71288,-1.95996 1.425702,-3.92022 2.138156,-5.87993 0.534715,3.20645 1.069343,6.4142 1.603616,9.6217 2.227659,1.15798 4.632936,2.31607 6.949008,3.47451 -2.226881,0.97967 -4.454228,1.95971 -6.681739,2.93996 2.406036,2.49461 4.811117,4.98877 7.216277,7.48355 -1.781535,0.62336 -3.563329,1.24699 -5.34539,1.87088 2.673437,2.13828 5.345655,4.27605 8.018087,6.41447 -2.850576,1.51425 -5.701485,3.02879 -8.552625,4.54358 3.653351,2.13813 7.30563,4.27605 10.958049,6.41447 -3.830513,1.78149 -7.661462,3.56333 -11.492589,5.34539 3.207766,1.06891 6.414733,2.13789 9.621702,3.20724 -2.672297,3.02864 -5.345125,6.05784 -8.018084,9.08716 2.762306,2.22719 5.523833,4.45423 8.285356,6.68174 -2.405134,2.31604 -4.810588,4.63241 -7.216278,6.94901 1.96046,2.13813 3.920218,4.27604 5.879928,6.41447 -2.226992,2.04881 -4.454226,4.09786 -6.681737,6.14719 -0.62344,1.95996 -1.246994,3.91969 -1.870887,5.87993 2.406078,0.80168 4.811117,1.60336 7.216277,2.40543 -6.057445,0.44515 -12.115953,0.89063 -18.174327,1.33635 -6.14722,-0.44574 -12.294134,-0.89117 -18.441598,-1.33635 2.227599,-1.33667 4.454758,-2.67296 6.68174,-4.00904 z" />
  </g>
  <g
     inkscape:groupmode="layer"
     id="layer2"
     inkscape:label="Layer 2"
     transform="translate(0,-135.46667)" />
</svg>
