<?xml version="1.0" encoding="UTF-8" standalone="no"?>
<!-- Created with Inkscape (http://www.inkscape.org/) -->

<svg
   xmlns:dc="http://purl.org/dc/elements/1.1/"
   xmlns:cc="http://creativecommons.org/ns#"
   xmlns:rdf="http://www.w3.org/1999/02/22-rdf-syntax-ns#"
   xmlns:svg="http://www.w3.org/2000/svg"
   xmlns="http://www.w3.org/2000/svg"
   xmlns:sodipodi="http://sodipodi.sourceforge.net/DTD/sodipodi-0.dtd"
   xmlns:inkscape="http://www.inkscape.org/namespaces/inkscape"
   width="512"
   height="512"
   viewBox="0 0 135.46666 135.46667"
   version="1.1"
   id="svg4642"
   inkscape:version="0.92.3 (2405546, 2018-03-11)"
   sodipodi:docname="Coral_Red_01.svg">
  <defs
     id="defs4636">
    <inkscape:path-effect
       effect="bspline"
       id="path-effect5246"
       is_visible="true"
       weight="33.333333"
       steps="2"
       helper_size="0"
       apply_no_weight="true"
       apply_with_weight="true"
       only_selected="false" />
    <inkscape:path-effect
       effect="bspline"
       id="path-effect5242"
       is_visible="true"
       weight="33.333333"
       steps="2"
       helper_size="0"
       apply_no_weight="true"
       apply_with_weight="true"
       only_selected="false" />
    <inkscape:path-effect
       effect="bspline"
       id="path-effect5238"
       is_visible="true"
       weight="33.333333"
       steps="2"
       helper_size="0"
       apply_no_weight="true"
       apply_with_weight="true"
       only_selected="false" />
  </defs>
  <sodipodi:namedview
     id="base"
     pagecolor="#ffffff"
     bordercolor="#666666"
     borderopacity="1.0"
     inkscape:pageopacity="0.0"
     inkscape:pageshadow="2"
     inkscape:zoom="0.98994949"
     inkscape:cx="223.79097"
     inkscape:cy="264.17381"
     inkscape:document-units="mm"
     inkscape:current-layer="layer1"
     showgrid="false"
     units="px"
     inkscape:pagecheckerboard="true"
     inkscape:window-width="2560"
     inkscape:window-height="1017"
     inkscape:window-x="1912"
     inkscape:window-y="-8"
     inkscape:window-maximized="1" />
  <metadata
     id="metadata4639">
    <rdf:RDF>
      <cc:Work
         rdf:about="">
        <dc:format>image/svg+xml</dc:format>
        <dc:type
           rdf:resource="http://purl.org/dc/dcmitype/StillImage" />
        <dc:title></dc:title>
      </cc:Work>
    </rdf:RDF>
  </metadata>
  <g
     inkscape:label="Layer 1"
     inkscape:groupmode="layer"
     id="layer1"
     transform="translate(0,-161.53332)">
    <path
       style="fill:#d40055;stroke:none;stroke-width:0.26458332px;stroke-linecap:butt;stroke-linejoin:miter;stroke-opacity:1"
       d="m 38.531323,291.29811 c -0.489999,-1.60371 -0.935448,-4.09822 -4.810474,-7.12699 -3.875027,-3.02877 -11.181014,-6.59267 -14.165454,-9.26555 -2.984441,-2.67288 -1.648113,-4.45465 2.137612,-3.4748 3.785725,0.97985 10.023054,4.72224 13.987537,7.12766 3.964484,2.40542 5.657213,3.47451 6.191705,3.47447 0.534491,-5e-5 -0.08916,-1.06917 -2.316234,-3.42986 -2.227071,-2.3607 -6.058229,-6.01367 -10.423548,-8.50816 -4.365319,-2.4945 -9.265251,-3.83084 -11.537078,-5.0783 -2.271827,-1.24746 -1.915479,-2.40559 -1.158263,-3.25179 0.757217,-0.84619 1.915698,-1.38088 4.320541,-1.02459 2.404843,0.35629 6.058531,1.60389 9.978343,3.74197 3.919812,2.13808 8.10721,5.16727 10.913496,7.52811 2.806287,2.36084 4.231742,4.05357 4.16166,3.50827 -0.07008,-0.5453 -1.711744,-3.4638 -3.716225,-6.71552 -2.004481,-3.25171 -4.40998,-6.90451 -7.572568,-9.79985 -3.162588,-2.89535 -7.082609,-5.03354 -9.087186,-6.8155 -2.004577,-1.78196 -2.093664,-3.20736 -1.425454,-4.0536 0.66821,-0.84624 2.093893,-1.11356 3.839736,-0.73052 1.745844,0.38303 3.955711,1.48796 6.22739,3.18059 2.271679,1.69262 4.677228,4.00908 6.770827,6.14722 2.093599,2.13814 3.875405,4.09813 5.835367,7.26078 1.959961,3.16266 4.098105,7.52803 4.819193,7.92721 0.721088,0.39917 -0.0084,-3.33924 -1.166487,-7.2145 -1.158129,-3.87526 -2.761838,-7.97363 -5.478996,-12.29435 -2.717157,-4.32072 -6.548149,-8.86445 -8.240807,-11.98274 -1.692659,-3.11828 -1.247206,-4.811 -0.400852,-5.83539 0.846355,-1.02438 2.093843,-1.38081 3.38531,-0.75735 1.291466,0.62346 2.628149,2.22748 4.899966,4.94475 2.271817,2.71727 5.478999,6.54807 7.706237,11.0025 2.227239,4.45443 3.474489,9.53252 4.410002,10.73512 0.935514,1.2026 1.559119,-1.47 2.049083,-3.83076 0.489964,-2.36076 0.846364,-4.41006 2.316249,-6.99342 1.469885,-2.58337 4.05387,-5.70197 6.548311,-7.52818 2.494442,-1.82621 4.900089,-2.3608 6.503474,-1.87092 1.603386,0.48989 2.405298,2.00461 2.208381,3.27436 -0.196917,1.26975 -1.495456,2.38278 -2.921104,3.94206 -1.425647,1.55928 -3.0289,3.60788 -4.409944,6.63721 -1.381044,3.02933 -2.539046,7.0378 -4.009046,10.46787 -1.47,3.43008 -3.25166,6.28073 -3.919924,9.17636 -0.668263,2.89562 -0.222862,5.83527 1.569167,4.39097 1.792029,-1.4443 4.889912,-7.19751 7.963444,-12.45368 3.073532,-5.25617 6.102753,-9.97819 9.399015,-13.49711 3.296261,-3.51891 6.860088,-5.8354 9.710796,-6.63712 2.850707,-0.80171 4.989047,-0.0889 5.879913,1.11354 0.890866,1.20247 0.534481,2.8953 -1.024714,4.41003 -1.559195,1.51472 -4.320482,2.85083 -6.770636,5.16728 -2.450154,2.31645 -4.588062,5.61239 -6.949072,9.44346 -2.36101,3.83106 -4.944371,8.19605 -6.280801,10.82425 -1.336429,2.6282 -1.425513,3.51903 0.446092,1.46915 1.871606,-2.04988 5.701227,-7.03729 9.44293,-10.91258 3.741703,-3.8753 7.394599,-6.63724 11.492555,-8.5971 4.097957,-1.95986 8.641912,-3.11812 10.913542,-2.76191 2.27164,0.3562 2.27164,2.22721 1.78169,3.74181 -0.48994,1.5146 -1.46979,2.6726 -3.83109,4.23198 -2.36131,1.55937 -6.102156,3.51887 -10.066869,6.99352 -3.964714,3.47465 -8.151583,8.46326 -8.106878,9.7996 0.04471,1.33634 4.320772,-0.97986 8.864162,-2.36067 4.543389,-1.3808 9.354595,-1.82629 12.008385,-1.59341 2.65378,0.23288 3.2258,1.28159 3.27041,2.39516 0.0446,1.11357 -0.4008,2.36071 -1.91555,3.47455 -1.51475,1.11385 -4.0977,2.09359 -6.63692,3.07364 -2.539214,0.98004 -5.033425,1.95991 -7.572669,3.56361 -2.539245,1.6037 -5.122517,3.83066 -8.820018,4.9444 -3.697501,1.11375 -8.507825,1.11375 -16.258966,0.98121 -7.75114,-0.13253 -18.61946,-0.40199 -24.276815,-0.89202 -5.657356,-0.49003 -6.191881,-1.20273 -6.681879,-2.80643 z"
       id="path5244"
       inkscape:connector-curvature="0"
       inkscape:path-effect="#path-effect5246"
       inkscape:original-d="m 38.486812,292.18913 c -0.445185,-2.49478 -0.890635,-4.98929 -1.336349,-7.48354 -7.304484,-3.56356 -14.610469,-7.12746 -21.9161,-10.69078 1.336632,-1.78209 2.67296,-3.56386 4.009043,-5.34539 6.235516,3.74088 12.472843,7.48328 18.708866,11.22532 1.69295,1.0688 3.38568,2.13789 5.078121,3.20723 -0.623339,-1.0693 -1.246994,-2.13842 -1.870887,-3.20723 -3.830304,-3.65267 -7.66146,-7.30564 -11.492589,-10.95806 -4.899684,-1.33661 -9.799618,-2.67295 -14.699824,-4.00904 0.356637,-1.15847 0.712984,-2.3166 1.069079,-3.4745 1.158116,-0.53466 2.3166,-1.06934 3.474503,-1.60362 3.651943,1.24665 7.305631,2.49425 10.958051,3.74177 4.187309,3.02867 8.37471,6.05785 12.561667,9.08717 1.425687,1.69242 2.85114,3.38515 4.276313,5.07812 -1.603375,-2.76209 -3.20697,-5.70201 -4.810853,-8.55262 -2.405086,-3.65284 -4.810585,-7.30564 -7.216275,-10.95806 -3.919622,-2.13838 -7.839643,-4.27657 -11.75986,-6.41446 -0.08883,-1.42574 -0.177915,-2.85114 -0.26727,-4.27632 1.425456,-0.26749 2.85114,-0.5348 4.276312,-0.80181 2.048897,1.06859 4.276577,2.1379 6.414469,3.20724 2.405573,2.31595 4.811117,4.63241 7.216277,6.94901 1.782059,1.9597 3.563858,3.91969 5.34539,5.87992 2.138437,4.36517 4.276577,8.73055 6.414469,13.09621 -0.71247,-3.56395 -1.425173,-7.30563 -2.138156,-10.95805 -1.603262,-4.09816 -3.20697,-8.19653 -4.81085,-12.2944 -3.830468,-4.54369 -7.661463,-9.08742 -11.49259,-13.63074 0.445712,-1.69296 0.891162,-3.38568 1.336347,-5.07812 1.247293,-0.35656 2.49478,-0.71299 3.741774,-1.06908 1.336276,1.60295 2.672959,3.20697 4.009041,4.81085 3.207552,3.83066 6.414736,7.66146 9.621705,11.49259 1.247529,5.07789 2.49478,10.15598 3.741772,15.23436 0.623917,-2.67306 1.247524,-5.34565 1.870887,-8.01808 0.356582,-2.0491 0.712984,-4.0984 1.069078,-6.1472 2.58349,-3.11795 5.167477,-6.23655 7.750816,-9.35443 2.40547,-0.53476 4.811117,-1.06935 7.216277,-1.60362 0.801971,1.51407 1.603883,3.02879 2.405428,4.54358 -1.157978,1.06888 -2.494251,2.13789 -3.741775,3.20723 -1.603716,2.04927 -3.206969,4.09787 -4.810852,6.1472 -1.158068,4.00935 -2.31607,8.01782 -3.474503,12.02713 -1.781673,2.85083 -3.563329,5.70149 -5.345391,8.55263 0.445762,2.94001 0.891165,5.87966 1.336347,8.81989 3.20774,-5.79154 6.236555,-11.58194 9.354434,-17.37252 3.029154,-4.72177 6.058373,-9.44379 9.087165,-14.16528 3.563625,-2.31645 7.127451,-4.63294 10.69078,-6.94901 2.138236,0.71239 4.276577,1.42517 6.414468,2.13816 -0.356068,1.69231 -0.712454,3.38514 -1.069078,5.07812 -2.762019,1.33632 -5.523304,2.67243 -8.285355,4.00904 -2.138138,3.29644 -4.276048,6.59238 -6.414468,9.88897 -2.583583,4.36555 -5.166945,8.73054 -7.750816,13.09621 -0.08883,0.8907 -0.177916,1.78153 -0.267271,2.67269 3.832368,-4.99091 7.661992,-9.97832 11.49259,-14.96709 3.652734,-2.76189 7.305632,-5.52383 10.958052,-8.28535 4.543477,-1.15834 9.087429,-2.31661 13.630749,-3.47451 2.6e-4,1.8705 2.6e-4,3.74151 0,5.61266 -0.97987,1.15807 -1.95972,2.31607 -2.93997,3.47451 -3.74243,1.96019 -7.483281,3.91968 -11.22532,5.87993 -4.187311,4.98918 -8.374179,9.97779 -12.561668,14.96709 4.276823,-2.31674 8.552892,-4.63294 12.82894,-6.94901 4.81076,-0.44568 9.621968,-0.89116 14.432548,-1.33635 0.53478,0.89058 1.06935,1.95971 1.60362,2.93997 -0.44523,1.24711 -0.89063,2.49425 -1.33634,3.74177 -2.584,0.97997 -5.16695,1.95971 -7.75082,2.93997 -2.49456,0.97984 -4.988769,1.95971 -7.483549,2.93996 -2.583672,2.22727 -5.166944,4.45423 -7.750815,6.68174 -4.811114,-2.7e-4 -9.621438,-2.7e-4 -14.432555,0 -10.691103,-0.26755 -21.559477,-0.5348 -32.339613,-0.80181 -0.534286,-0.713 -1.068813,-1.4257 -1.603616,-2.13816 z" />
  </g>
  <g
     inkscape:groupmode="layer"
     id="layer2"
     inkscape:label="Layer 2"
     transform="translate(0,-135.46667)" />
</svg>
