<?xml version="1.0" encoding="UTF-8" standalone="no"?>
<!-- Created with Inkscape (http://www.inkscape.org/) -->

<svg
   xmlns:dc="http://purl.org/dc/elements/1.1/"
   xmlns:cc="http://creativecommons.org/ns#"
   xmlns:rdf="http://www.w3.org/1999/02/22-rdf-syntax-ns#"
   xmlns:svg="http://www.w3.org/2000/svg"
   xmlns="http://www.w3.org/2000/svg"
   xmlns:sodipodi="http://sodipodi.sourceforge.net/DTD/sodipodi-0.dtd"
   xmlns:inkscape="http://www.inkscape.org/namespaces/inkscape"
   width="512"
   height="512"
   viewBox="0 0 135.46666 135.46667"
   version="1.1"
   id="svg4642"
   inkscape:version="0.92.3 (2405546, 2018-03-11)"
   sodipodi:docname="Coral_DarkBlue_01.svg">
  <defs
     id="defs4636">
    <inkscape:path-effect
       effect="bspline"
       id="path-effect5254"
       is_visible="true"
       weight="33.333333"
       steps="2"
       helper_size="0"
       apply_no_weight="true"
       apply_with_weight="true"
       only_selected="false" />
    <inkscape:path-effect
       effect="bspline"
       id="path-effect5250"
       is_visible="true"
       weight="33.333333"
       steps="2"
       helper_size="0"
       apply_no_weight="true"
       apply_with_weight="true"
       only_selected="false" />
    <inkscape:path-effect
       effect="bspline"
       id="path-effect5246"
       is_visible="true"
       weight="33.333333"
       steps="2"
       helper_size="0"
       apply_no_weight="true"
       apply_with_weight="true"
       only_selected="false" />
    <inkscape:path-effect
       effect="bspline"
       id="path-effect5242"
       is_visible="true"
       weight="33.333333"
       steps="2"
       helper_size="0"
       apply_no_weight="true"
       apply_with_weight="true"
       only_selected="false" />
    <inkscape:path-effect
       effect="bspline"
       id="path-effect5238"
       is_visible="true"
       weight="33.333333"
       steps="2"
       helper_size="0"
       apply_no_weight="true"
       apply_with_weight="true"
       only_selected="false" />
  </defs>
  <sodipodi:namedview
     id="base"
     pagecolor="#ffffff"
     bordercolor="#666666"
     borderopacity="1.0"
     inkscape:pageopacity="0.0"
     inkscape:pageshadow="2"
     inkscape:zoom="1.4"
     inkscape:cx="183.90191"
     inkscape:cy="214.20447"
     inkscape:document-units="mm"
     inkscape:current-layer="layer1"
     showgrid="false"
     units="px"
     inkscape:pagecheckerboard="true"
     inkscape:window-width="2560"
     inkscape:window-height="1017"
     inkscape:window-x="1912"
     inkscape:window-y="-8"
     inkscape:window-maximized="1" />
  <metadata
     id="metadata4639">
    <rdf:RDF>
      <cc:Work
         rdf:about="">
        <dc:format>image/svg+xml</dc:format>
        <dc:type
           rdf:resource="http://purl.org/dc/dcmitype/StillImage" />
        <dc:title></dc:title>
      </cc:Work>
    </rdf:RDF>
  </metadata>
  <g
     inkscape:label="Layer 1"
     inkscape:groupmode="layer"
     id="layer1"
     transform="translate(0,-161.53332)">
    <path
       style="fill:#214478;stroke:none;stroke-width:0.26458332px;stroke-linecap:butt;stroke-linejoin:miter;stroke-opacity:1;fill-opacity:1"
       d="m 22.300595,289.06249 c 0,0 -12.6622025,-43.46727 -12.6622025,-43.46727 4.0947425,5.92163 8.1894465,11.8432 11.8117385,18.6468 3.622291,6.8036 6.772091,14.48911 9.921893,22.17463 -1.511905,-10.89831 -3.023841,-21.79685 -5.512155,-32.19104 -2.488315,-10.3942 -5.953123,-20.28465 -9.417905,-30.17503 5.480655,9.5124 10.961223,19.02465 14.363043,29.3245 3.40182,10.29985 4.724754,21.38731 6.04767,32.47461 0.314981,-18.39484 0.629966,-36.78995 1.10244,-53.04293 0.472475,-16.25298 1.102423,-30.36382 1.732383,-44.47493 2.960813,12.6622 5.921534,25.32401 7.559476,37.86039 1.637942,12.53638 1.952918,24.9464 2.551379,34.96286 0.598462,10.01645 1.480415,17.63905 2.362359,25.26157 0.755953,-13.98512 1.51192,-27.97051 2.897835,-40.00267 1.385915,-12.03215 3.40183,-22.11172 4.913714,-34.61642 1.511883,-12.50471 2.5198,-27.43448 3.527736,-42.36454 2.078869,14.42609 4.157675,28.85175 4.945159,42.36458 0.787483,13.51282 0.283621,26.10939 1.039695,37.70294 0.756074,11.59356 2.771596,22.17504 4.787469,32.75837 1.511904,-20.66269 3.02383,-41.32568 5.417732,-55.78328 2.393902,-14.4576 5.669698,-22.71009 7.748522,-28.72614 2.078824,-6.01605 2.960729,-9.79564 3.842673,-13.5754 -1.385913,14.55208 -3.010487,31.61012 -3.114805,42.74343 -0.104317,11.13331 1.224903,25.60704 1.917867,34.67851 0.692964,9.07148 0.944954,14.86725 1.196938,20.66288 3.02381,-12.28423 6.047695,-24.56876 8.095045,-35.40407 2.047346,-10.83532 3.118276,-20.22172 3.086746,-28.03318 -0.0315,-7.81146 -1.16542,-14.04786 -2.29935,-20.28447 3.0868,6.48859 6.17352,12.977 7.59098,21.57596 1.41745,8.59896 1.16548,19.30791 1.38596,29.86003 0.22048,10.55212 0.91344,20.94645 1.60639,31.34079 2.01587,-5.92163 4.03186,-11.84357 5.19722,-19.43432 1.16537,-7.59075 1.48036,-16.85139 1.79534,-26.11181 1.6379,10.20536 3.27576,20.4105 3.59076,29.82846 0.31501,9.41796 -0.69294,18.04852 -1.70088,26.67898 -8.56746,1.07093 -17.13462,2.14183 -28.316669,2.67731 -11.182047,0.53549 -24.977705,0.53549 -36.915583,-0.53544 -11.937877,-1.07093 -22.017248,-3.2128 -32.096613,-5.35466 z"
       id="path5252"
       inkscape:connector-curvature="0"
       inkscape:path-effect="#path-effect5254"
       inkscape:original-d="M 22.300595,289.06249 9.6383925,245.59522 c 0,0 8.1897495,11.84299 12.2842265,17.76488 3.150122,7.68539 9.449405,23.05655 9.449405,23.05655 0,0 -3.023545,-21.79689 -4.535715,-32.69494 -3.464438,-9.89041 -10.394345,-29.67113 -10.394345,-29.67113 0,0 10.961534,19.02447 16.441965,28.5372 1.32319,11.08712 3.968748,33.26191 3.968748,33.26191 0,0 0.630226,-36.78995 0.944942,-55.18452 0.630225,-14.11138 1.889881,-42.33334 1.889881,-42.33334 0,0 5.921844,25.32394 8.882439,37.98661 0.315251,12.41015 0.630226,24.82017 0.944942,37.23065 0.882227,7.62241 2.645833,22.86756 2.645833,22.86756 0,0 1.512168,-27.9705 2.267858,-41.95536 2.016096,-10.07942 4.03201,-20.15899 6.047619,-30.23809 1.0082,-14.93033 3.023808,-44.79018 3.023808,-44.79018 0,0 4.157972,28.85171 6.236607,43.27828 -0.50371,12.59913 -1.007573,25.1957 -1.511904,37.79762 2.01653,10.58512 6.04762,31.74999 6.04762,31.74999 0,0 3.024073,-41.32566 4.535713,-61.98808 3.276058,-8.25275 6.551854,-16.50524 9.827381,-24.75745 0.882179,-3.77989 2.645833,-11.33929 2.645833,-11.33929 0,0 -3.01025,31.61014 -4.157738,43.65625 0.938902,10.22046 2.268122,24.69419 3.401786,37.04167 0.252254,5.79549 0.755952,17.3869 0.755952,17.3869 0,0 6.047883,-24.56871 9.071431,-36.85268 1.0712,-9.38668 2.14213,-18.77308 3.21279,-28.15922 -1.13366,-6.23687 -3.40178,-18.70982 -3.40178,-18.70982 0,0 6.17384,12.97685 9.26041,19.46577 -0.25172,10.70916 -0.50369,21.41811 -0.75594,32.12798 0.69323,10.39434 2.07886,31.18303 2.07886,31.18303 0,0 4.03201,-11.84352 6.04762,-17.76488 0.31523,-9.26018 0.94494,-27.78125 0.94494,-27.78125 0,0 3.27606,20.41045 4.91369,30.61607 -1.00769,8.63038 -3.02381,25.89137 -3.02381,25.89137 0,0 -17.13465,2.1416 -25.702378,3.2128 -13.796338,-2.7e-4 -27.591996,-2.7e-4 -41.388392,0 -10.079294,-2.14217 -30.238095,-6.42559 -30.238095,-6.42559 z"
       sodipodi:nodetypes="cccccccccccccccccccccccccccccccccccccc" />
  </g>
  <g
     inkscape:groupmode="layer"
     id="layer2"
     inkscape:label="Layer 2"
     transform="translate(0,-135.46667)" />
</svg>
