<?xml version="1.0" encoding="UTF-8" standalone="no"?>
<!-- Created with Inkscape (http://www.inkscape.org/) -->

<svg
   xmlns:dc="http://purl.org/dc/elements/1.1/"
   xmlns:cc="http://creativecommons.org/ns#"
   xmlns:rdf="http://www.w3.org/1999/02/22-rdf-syntax-ns#"
   xmlns:svg="http://www.w3.org/2000/svg"
   xmlns="http://www.w3.org/2000/svg"
   xmlns:sodipodi="http://sodipodi.sourceforge.net/DTD/sodipodi-0.dtd"
   xmlns:inkscape="http://www.inkscape.org/namespaces/inkscape"
   width="512"
   height="512"
   viewBox="0 0 135.46666 135.46667"
   version="1.1"
   id="svg4642"
   inkscape:version="0.92.3 (2405546, 2018-03-11)"
   sodipodi:docname="Coral_Yellow_01.svg">
  <defs
     id="defs4636">
    <inkscape:path-effect
       effect="bspline"
       id="path-effect5250"
       is_visible="true"
       weight="33.333333"
       steps="2"
       helper_size="0"
       apply_no_weight="true"
       apply_with_weight="true"
       only_selected="false" />
    <inkscape:path-effect
       effect="bspline"
       id="path-effect5246"
       is_visible="true"
       weight="33.333333"
       steps="2"
       helper_size="0"
       apply_no_weight="true"
       apply_with_weight="true"
       only_selected="false" />
    <inkscape:path-effect
       effect="bspline"
       id="path-effect5242"
       is_visible="true"
       weight="33.333333"
       steps="2"
       helper_size="0"
       apply_no_weight="true"
       apply_with_weight="true"
       only_selected="false" />
    <inkscape:path-effect
       effect="bspline"
       id="path-effect5238"
       is_visible="true"
       weight="33.333333"
       steps="2"
       helper_size="0"
       apply_no_weight="true"
       apply_with_weight="true"
       only_selected="false" />
  </defs>
  <sodipodi:namedview
     id="base"
     pagecolor="#ffffff"
     bordercolor="#666666"
     borderopacity="1.0"
     inkscape:pageopacity="0.0"
     inkscape:pageshadow="2"
     inkscape:zoom="1.4"
     inkscape:cx="183.90191"
     inkscape:cy="214.20447"
     inkscape:document-units="mm"
     inkscape:current-layer="layer1"
     showgrid="false"
     units="px"
     inkscape:pagecheckerboard="true"
     inkscape:window-width="2560"
     inkscape:window-height="1017"
     inkscape:window-x="1912"
     inkscape:window-y="-8"
     inkscape:window-maximized="1" />
  <metadata
     id="metadata4639">
    <rdf:RDF>
      <cc:Work
         rdf:about="">
        <dc:format>image/svg+xml</dc:format>
        <dc:type
           rdf:resource="http://purl.org/dc/dcmitype/StillImage" />
        <dc:title></dc:title>
      </cc:Work>
    </rdf:RDF>
  </metadata>
  <g
     inkscape:label="Layer 1"
     inkscape:groupmode="layer"
     id="layer1"
     transform="translate(0,-161.53332)">
    <path
       style="fill:#ffdd55;stroke:none;stroke-width:0.26458332px;stroke-linecap:butt;stroke-linejoin:miter;stroke-opacity:1"
       d="m 28.109155,281.01198 c -5.488522,-6.8525 -10.977073,-13.70504 -13.233551,-22.37166 -2.256477,-8.66662 -1.280992,-19.14683 -0.305481,-29.62733 1.291259,10.53793 2.582469,21.07545 4.943836,27.27863 2.361368,6.20318 5.792483,8.07104 9.223753,9.93899 -1.443345,-5.61157 -2.886737,-11.22333 -3.934569,-17.58771 -1.047832,-6.36438 -1.700179,-13.48154 -1.803608,-19.6237 -0.103429,-6.14215 0.342004,-11.30917 0.787453,-16.47638 2.866161,13.98371 5.73223,27.96698 9.354398,39.84057 3.622168,11.87359 8.000213,21.63653 12.378277,31.39951 -1.091781,-10.53531 -2.183586,-21.07084 -0.905674,-30.44972 1.277911,-9.37888 4.925475,-17.60151 4.878211,-26.65678 -0.04726,-9.05527 -3.789111,-18.94444 -7.530885,-28.83341 3.830863,4.3654 7.66171,8.73079 10.480145,12.75901 2.818435,4.02823 4.624465,7.71933 5.981512,12.6897 1.357048,4.97036 2.265119,11.2203 3.173158,17.47002 0,0 0.755952,12.09524 0.755952,12.09524 3.391745,-4.56891 6.78371,-9.13811 8.151436,-15.63438 1.367725,-6.49628 0.71169,-14.91973 0.05564,-23.34342 4.11265,6.88416 8.225152,13.76807 8.347154,21.23045 0.122001,7.46238 -3.746657,15.50245 -4.091391,24.33979 -0.344735,8.83733 2.834841,18.47084 6.014445,28.10444 -0.746231,-8.34944 -1.492483,-16.69911 -0.308689,-24.7465 1.183794,-8.04738 4.297465,-15.79264 5.720597,-23.00601 1.423132,-7.21337 1.155865,-13.89504 0.888595,-20.57678 2.316336,4.54358 4.632619,9.08706 5.835358,14.78881 1.202739,5.70175 1.291826,12.56151 1.12539,18.04585 -0.166436,5.48434 -0.588426,9.59309 -1.010404,13.70171 2.269392,-4.45078 4.538944,-8.90188 7.294471,-12.26323 2.75552,-3.36135 5.99673,-5.63315 9.23825,-7.90517 0,0 -12.997261,47.65742 -12.997261,47.65742 -3.834361,0.77399 -7.667993,1.54784 -14.105086,2.03929 -6.437093,0.49146 -15.474459,0.70019 -23.17169,0.76319 -7.69723,0.063 -14.05283,-0.0197 -19.034535,-2.5509 -4.981704,-2.53114 -8.588375,-7.51023 -12.195203,-12.48954 z"
       id="path5248"
       inkscape:connector-curvature="0"
       inkscape:path-effect="#path-effect5250"
       inkscape:original-d="m 28.109155,281.01198 c 0,0 -10.976782,-13.70527 -16.465566,-20.5575 0.975776,-10.48076 2.926534,-31.44149 2.926534,-31.44149 0,0 2.582761,21.07541 3.873778,31.61378 3.431595,1.86772 10.293811,5.60384 10.293811,5.60384 0,0 -2.886427,-11.22341 -4.330035,-16.83472 -0.652081,-7.1174 -1.304427,-14.23456 -1.957037,-21.35144 0.445705,-5.16738 1.336348,-15.50163 1.336348,-15.50163 0,0 5.732536,27.96692 8.598482,41.95114 4.378404,9.76288 13.134193,29.28894 13.134193,29.28894 0,0 -2.183297,-21.07087 -3.275343,-31.60592 3.647706,-8.22262 7.295266,-16.44526 10.942316,-24.66707 -3.741381,-9.8889 -11.225321,-29.66692 -11.225321,-29.66692 0,0 7.661992,8.73054 11.49259,13.09621 1.806309,3.69087 3.612336,7.38198 5.418107,11.07336 0.908304,6.24946 2.724118,18.74916 2.724118,18.74916 l 0.755952,12.09524 c 0,0 6.783752,-9.13808 10.175234,-13.70672 -0.65579,-8.42396 -1.968162,-25.27108 -1.968162,-25.27108 0,0 8.225463,13.76788 12.33795,20.65247 -3.868682,8.04041 -7.737342,16.08048 -11.606555,24.12142 3.179948,9.63358 9.538813,28.90079 9.538813,28.90079 0,0 -1.492197,-16.69914 -2.238692,-25.04831 3.113933,-7.74552 6.227602,-15.49078 9.341004,-23.23576 -0.266999,-6.68182 -0.801809,-20.04522 -0.801809,-20.04522 0,0 4.632936,9.0869 6.949009,13.63075 0.08935,6.85981 0.178443,13.71957 0.267268,20.57975 -0.421729,4.10852 -1.265933,12.32587 -1.265933,12.32587 0,0 4.539047,-8.90183 6.808175,-13.35235 3.241786,-2.27228 9.724546,-6.81605 9.724546,-6.81605 l -12.997261,47.65742 c 0,0 -7.668033,1.54764 -11.503083,2.32198 -9.039102,0.20852 -18.076468,0.41724 -27.1151,0.62626 -6.35582,-0.083 -12.71142,-0.16578 -19.067847,-0.24828 -3.606685,-4.97974 -10.820484,-14.93792 -10.820484,-14.93792 z"
       sodipodi:nodetypes="ccccccccccccccccccccccccccccccccccc" />
  </g>
  <g
     inkscape:groupmode="layer"
     id="layer2"
     inkscape:label="Layer 2"
     transform="translate(0,-135.46667)" />
</svg>
